<?xml version='1.0' encoding='ascii'?>
<svg xmlns="http://www.w3.org/2000/svg" version="1.1" width="1920" height="1080">
    <g id="ViewLayer_LineSet" xmlns:inkscape="http://www.inkscape.org/namespaces/inkscape" inkscape:groupmode="lineset" inkscape:label="ViewLayer_LineSet">
        <g xmlns:inkscape="http://www.inkscape.org/namespaces/inkscape" inkscape:groupmode="layer" id="strokes" inkscape:label="strokes">
            <path fill="none" stroke-width="3.0" stroke-linecap="butt" stroke-opacity="1.0" stroke="rgb(0, 0, 0)" stroke-linejoin="round" d=" M 589.059, 577.247 589.072, 577.244 592.575, 576.569 596.011, 575.560 599.336, 574.229 602.519, 572.588 605.531, 570.652 608.346, 568.439 610.938, 565.967 613.283, 563.261 615.360, 560.344 617.150, 557.243 618.638, 553.986 619.809, 550.602 620.653, 547.121 621.163, 543.577 621.333, 540.000 621.333, 530.000 621.333, 520.000 621.333, 510.000 621.333, 500.000 621.333, 490.000 621.333, 480.000 621.333, 470.000 621.333, 460.000 621.333, 450.000 621.333, 440.000 621.333, 430.000 621.333, 420.000 621.333, 410.000 621.333, 408.296 621.504, 404.719 622.013, 401.175 622.858, 397.695 624.029, 394.311 625.516, 391.053 627.307, 387.952 629.384, 385.035 631.729, 382.329 634.321, 379.858 637.136, 377.644 640.148, 375.708 643.331, 374.067 646.656, 372.736 650.091, 371.727 653.608, 371.050 657.172, 370.709 660.753, 370.709 664.318, 371.050 667.835, 371.727 671.270, 372.736 674.595, 374.067 677.778, 375.708 680.790, 377.644 683.605, 379.858 686.197, 382.329 688.542, 385.035 690.619, 387.952 692.410, 391.053 693.897, 394.311 695.068, 397.695 695.913, 401.175 696.422, 404.719 696.593, 408.296 696.593, 418.296 696.593, 428.296 696.593, 438.296 696.593, 448.296 696.593, 458.296 696.593, 468.296 696.593, 478.296 696.593, 488.296 696.593, 498.296 696.593, 508.296 696.593, 518.296 696.593, 528.296 696.593, 538.296 696.593, 540.000 696.415, 546.330 695.883, 552.640 694.998, 558.910 693.762, 565.120 692.181, 571.252 690.258, 577.285 687.999, 583.201 685.413, 588.981 682.507, 594.606 679.289, 600.061 675.771, 605.326 671.964, 610.385 667.878, 615.223 663.528, 619.824 658.927, 624.175 654.089, 628.260 649.029, 632.068 643.764, 635.586 638.310, 638.803 632.684, 641.709 626.904, 644.296 620.989, 646.554 614.955, 648.477 608.824, 650.059 602.613, 651.294 596.343, 652.179 590.033, 652.711 583.704, 652.889 577.374, 652.711 571.064, 652.179 564.794, 651.294 558.584, 650.059 552.452, 648.477 546.419, 646.554 540.503, 644.296 534.723, 641.709 529.097, 638.803 523.643, 635.586 518.378, 632.068 513.319, 628.260 508.481, 624.175 503.879, 619.824 499.529, 615.223 495.444, 610.385 491.636, 605.326 488.118, 600.061 484.901, 594.606 481.994, 588.981 479.408, 583.201 477.150, 577.285 475.227, 571.252 473.645, 565.120 472.410, 558.910 471.525, 552.640 470.992, 546.330 470.815, 540.000 470.815, 530.000 470.815, 520.000 470.815, 510.000 470.815, 500.000 470.815, 490.000 470.815, 480.000 470.815, 470.000 470.815, 460.000 470.815, 450.000 470.815, 440.000 470.815, 430.000 470.815, 420.000 470.815, 410.000 470.815, 408.296 470.985, 404.719 471.495, 401.175 472.339, 397.695 473.510, 394.311 474.998, 391.053 476.788, 387.952 478.866, 385.035 481.211, 382.329 483.802, 379.858 486.617, 377.644 489.630, 375.708 492.813, 374.067 496.137, 372.736 499.573, 371.727 503.089, 371.050 506.654, 370.709 510.235, 370.709 513.800, 371.050 517.316, 371.727 520.752, 372.736 521.062, 372.854 524.384, 374.184 527.564, 375.824 530.575, 377.759 533.388, 379.971 535.977, 382.440 538.321, 385.144 540.397, 388.059 542.186, 391.158 543.672, 394.414 544.843, 397.795 545.686, 401.273 546.196, 404.815 546.366, 408.389 546.366, 418.389 546.366, 428.389 546.366, 438.389 546.366, 448.389 546.366, 458.389 546.366, 468.389 546.366, 478.389 546.366, 488.389 546.366, 498.389 546.366, 508.389 546.366, 518.389 546.366, 528.389 546.366, 538.389 546.366, 540.000 546.536, 543.574 547.045, 547.116 547.889, 550.594 549.060, 553.976 550.546, 557.231 552.335, 560.330 554.411, 563.245 556.754, 565.949 559.344, 568.419 562.157, 570.631 565.167, 572.565 568.348, 574.205 571.670, 575.535 575.104, 576.543 578.617, 577.220 582.180, 577.561 585.758, 577.561 589.072, 577.244 " />
            <path fill="none" stroke-width="3.0" stroke-linecap="butt" stroke-opacity="1.0" stroke="rgb(0, 0, 0)" stroke-linejoin="round" d=" M 614.955, 648.477 615.199, 648.400 621.228, 646.479 627.139, 644.222 632.915, 641.638 638.537, 638.733 643.987, 635.518 649.249, 632.003 654.304, 628.198 659.139, 624.115 663.737, 619.768 668.084, 615.170 672.167, 610.335 675.972, 605.280 679.487, 600.018 682.702, 594.568 685.607, 588.946 688.191, 583.170 690.448, 577.259 692.369, 571.230 693.950, 565.102 695.184, 558.896 696.069, 552.631 696.601, 546.325 696.778, 540.000 696.778, 530.000 696.778, 520.000 696.778, 510.000 696.778, 500.000 696.778, 490.000 696.778, 480.000 696.778, 470.000 696.778, 460.000 696.778, 450.000 696.778, 440.000 696.778, 430.000 696.778, 420.000 696.778, 410.000 696.778, 408.389 696.608, 404.815 696.099, 401.273 695.255, 397.795 694.085, 394.414 692.598, 391.158 690.809, 388.059 688.733, 385.144 686.390, 382.440 683.800, 379.971 680.987, 377.759 677.977, 375.824 677.778, 375.708 " />
            <path fill="none" stroke-width="3.0" stroke-linecap="butt" stroke-opacity="1.0" stroke="rgb(0, 0, 0)" stroke-linejoin="round" d=" M 520.752, 372.736 524.076, 374.067 527.259, 375.708 530.272, 377.644 533.087, 379.858 535.678, 382.329 538.023, 385.035 540.101, 387.952 541.891, 391.053 543.379, 394.311 544.550, 397.695 545.394, 401.175 545.904, 404.719 546.074, 408.296 546.074, 418.296 546.074, 428.296 546.074, 438.296 546.074, 448.296 546.074, 458.296 546.074, 468.296 546.074, 478.296 546.074, 488.296 546.074, 498.296 546.074, 508.296 546.074, 518.296 546.074, 528.296 546.074, 538.296 546.074, 540.000 546.245, 543.577 546.754, 547.121 547.598, 550.602 548.770, 553.986 550.257, 557.243 552.048, 560.344 554.125, 563.261 556.470, 565.967 559.062, 568.439 561.876, 570.652 564.889, 572.588 568.072, 574.229 571.396, 575.560 574.832, 576.569 578.348, 577.247 581.913, 577.587 585.494, 577.587 589.059, 577.247 " />
            <path fill="none" stroke-width="3.0" stroke-linecap="butt" stroke-opacity="1.0" stroke="rgb(0, 0, 0)" stroke-linejoin="round" d=" M 841.756, 559.198 841.782, 559.195 845.321, 558.857 848.902, 558.857 852.466, 559.198 855.983, 559.876 859.419, 560.884 862.743, 562.215 865.926, 563.856 868.938, 565.792 871.753, 568.006 874.345, 570.477 876.690, 573.183 878.767, 576.100 880.558, 579.202 882.045, 582.459 883.216, 585.843 884.061, 589.323 884.570, 592.868 884.741, 596.444 884.741, 606.444 884.741, 616.444 884.741, 626.444 884.741, 634.074 884.911, 637.651 885.421, 641.196 886.265, 644.676 887.436, 648.060 888.924, 651.317 890.714, 654.418 892.792, 657.335 895.137, 660.042 897.728, 662.513 900.543, 664.726 903.556, 666.662 906.738, 668.303 910.063, 669.634 913.499, 670.643 917.015, 671.321 920.580, 671.661 924.161, 671.661 927.726, 671.321 931.242, 670.643 934.678, 669.634 938.002, 668.303 941.185, 666.662 944.198, 664.726 947.013, 662.513 949.604, 660.042 951.949, 657.335 954.026, 654.418 955.817, 651.317 957.305, 648.060 958.476, 644.676 959.320, 641.196 959.830, 637.651 960.000, 634.074 960.000, 634.008 960.000, 624.008 960.000, 614.008 960.000, 604.008 960.000, 596.405 959.823, 590.079 959.291, 583.774 958.406, 577.508 957.172, 571.302 955.591, 565.175 953.669, 559.146 951.413, 553.234 948.828, 547.459 945.924, 541.837 942.709, 536.386 939.194, 531.125 935.389, 526.069 931.306, 521.235 926.959, 516.636 922.361, 512.289 917.526, 508.207 912.470, 504.402 912.437, 504.377 907.172, 500.859 901.718, 497.641 896.092, 494.735 890.312, 492.149 884.396, 489.891 878.363, 487.968 872.231, 486.386 866.021, 485.151 859.751, 484.265 853.441, 483.733 847.111, 483.556 840.781, 483.733 834.472, 484.265 828.202, 485.151 821.991, 486.386 815.859, 487.968 809.826, 489.891 803.910, 492.149 798.130, 494.735 792.505, 497.641 787.051, 500.859 781.786, 504.377 776.726, 508.184 771.888, 512.270 767.287, 516.620 762.936, 521.221 758.851, 526.059 755.043, 531.119 751.525, 536.384 748.308, 541.838 745.402, 547.464 742.815, 553.244 740.557, 559.160 738.634, 565.193 737.053, 571.324 735.817, 577.535 734.932, 583.805 734.400, 590.115 734.222, 596.444 734.222, 606.444 734.222, 616.444 734.222, 626.444 734.222, 634.074 734.393, 637.651 734.902, 641.196 735.747, 644.676 736.918, 648.060 738.405, 651.317 740.196, 654.418 742.273, 657.335 744.618, 660.042 747.210, 662.513 750.025, 664.726 753.037, 666.662 756.220, 668.303 759.544, 669.634 762.980, 670.643 766.497, 671.321 770.061, 671.661 773.642, 671.661 777.207, 671.321 780.723, 670.643 784.159, 669.634 787.484, 668.303 790.667, 666.662 793.679, 664.726 793.796, 664.638 796.609, 662.426 799.199, 659.957 801.543, 657.252 803.618, 654.338 805.407, 651.238 806.894, 647.983 808.064, 644.602 808.908, 641.124 809.417, 637.582 809.588, 634.008 809.588, 624.008 809.588, 614.008 809.588, 604.008 809.588, 596.405 809.758, 592.830 810.267, 589.288 811.111, 585.811 812.281, 582.429 813.768, 579.174 815.557, 576.075 817.633, 573.160 819.976, 570.456 822.566, 567.986 825.379, 565.774 828.389, 563.839 831.570, 562.200 834.892, 560.870 838.325, 559.862 841.782, 559.195 " />
            <path fill="none" stroke-width="3.0" stroke-linecap="butt" stroke-opacity="1.0" stroke="rgb(0, 0, 0)" stroke-linejoin="round" d=" M 841.756, 559.198 838.240, 559.876 834.804, 560.884 831.479, 562.215 828.296, 563.856 825.284, 565.792 822.469, 568.006 819.877, 570.477 817.532, 573.183 815.455, 576.100 813.665, 579.202 812.177, 582.459 811.006, 585.843 810.161, 589.323 809.652, 592.868 809.482, 596.444 809.482, 606.444 809.482, 616.444 809.482, 626.444 809.482, 634.074 809.311, 637.651 808.801, 641.196 807.957, 644.676 806.786, 648.060 805.298, 651.317 803.508, 654.418 801.431, 657.335 799.086, 660.042 796.494, 662.513 793.679, 664.726 " />
            <path fill="none" stroke-width="3.0" stroke-linecap="butt" stroke-opacity="1.0" stroke="rgb(0, 0, 0)" stroke-linejoin="round" d=" M 960.000, 634.074 960.000, 624.074 960.000, 614.074 960.000, 604.074 960.000, 596.444 959.822, 590.115 959.290, 583.805 958.405, 577.535 957.170, 571.324 955.588, 565.193 953.665, 559.160 951.407, 553.244 948.820, 547.464 945.914, 541.838 942.697, 536.384 939.179, 531.119 935.371, 526.059 931.286, 521.221 926.936, 516.620 922.334, 512.270 917.496, 508.184 912.437, 504.377 " />
            <path fill="none" stroke-width="3.0" stroke-linecap="butt" stroke-opacity="1.0" stroke="rgb(0, 0, 0)" stroke-linejoin="round" d=" M 1000.325, 648.060 999.154, 644.676 998.310, 641.196 997.800, 637.651 997.630, 634.074 997.630, 624.074 997.630, 614.074 997.630, 604.074 997.630, 594.074 997.630, 584.074 997.630, 574.074 997.630, 564.074 997.630, 554.074 997.630, 544.074 997.630, 534.074 997.630, 524.948 997.800, 521.371 998.310, 517.827 999.154, 514.347 1000.325, 510.963 1001.813, 507.705 1003.603, 504.604 1005.680, 501.687 1008.025, 498.981 1010.617, 496.510 1013.432, 494.296 1016.444, 492.360 1019.627, 490.719 1022.952, 489.388 1026.388, 488.379 1029.904, 487.702 1033.469, 487.361 1037.050, 487.361 1040.615, 487.702 1044.131, 488.379 1047.567, 489.388 1050.891, 490.719 1054.074, 492.360 1057.087, 494.296 1059.901, 496.510 1062.493, 498.981 1064.838, 501.687 1066.915, 504.604 1068.706, 507.705 1070.193, 510.963 1071.365, 514.347 1072.209, 517.827 1072.719, 521.371 1072.889, 524.948 1072.889, 534.948 1072.889, 544.948 1072.889, 554.948 1072.889, 564.948 1072.889, 574.948 1072.889, 584.948 1072.889, 594.948 1072.889, 604.948 1072.889, 614.948 1072.889, 624.948 1072.889, 634.074 1072.719, 637.651 1072.209, 641.196 1071.365, 644.676 1070.193, 648.060 1068.706, 651.317 1066.915, 654.418 1064.838, 657.335 1062.493, 660.042 1059.901, 662.513 1057.087, 664.726 1054.074, 666.662 1050.891, 668.303 1047.567, 669.634 1044.131, 670.643 1040.615, 671.321 1037.050, 671.661 1033.469, 671.661 1029.904, 671.321 1026.388, 670.643 1022.952, 669.634 1019.627, 668.303 1016.444, 666.662 1013.432, 664.726 1010.617, 662.513 1008.025, 660.042 1005.680, 657.335 1003.603, 654.418 1001.813, 651.317 1000.325, 648.060 1000.297, 647.983 999.126, 644.602 998.283, 641.124 997.773, 637.582 997.603, 634.008 997.603, 624.008 997.603, 614.008 997.603, 604.008 997.603, 594.008 997.603, 584.008 997.603, 574.008 997.603, 564.008 997.603, 554.008 997.603, 544.008 997.603, 534.008 997.603, 524.959 997.773, 521.384 998.283, 517.842 999.126, 514.365 1000.297, 510.983 1001.783, 507.728 1003.572, 504.629 1005.648, 501.714 1007.992, 499.010 1010.581, 496.540 1010.617, 496.510 " />
            <path fill="none" stroke-width="3.0" stroke-linecap="butt" stroke-opacity="1.0" stroke="rgb(0, 0, 0)" stroke-linejoin="round" d=" M 997.603, 408.389 997.779, 412.018 998.304, 415.614 999.173, 419.142 1000.379, 422.569 1001.910, 425.864 1003.752, 428.996 1005.888, 431.936 1008.297, 434.655 1010.958, 437.130 1013.845, 439.336 1016.932, 441.253 1020.189, 442.863 1023.586, 444.152 1027.092, 445.106 1030.674, 445.718 1034.298, 445.981 1037.930, 445.893 1041.537, 445.456 1045.085, 444.671 1048.540, 443.549 1051.872, 442.098 1055.047, 440.332 1058.037, 438.268 1060.814, 435.925 1063.353, 433.325 1063.425, 433.249 1065.702, 430.414 1067.695, 427.373 1069.385, 424.153 1070.756, 420.786 1071.795, 417.302 1072.494, 413.733 1072.845, 410.114 1072.845, 406.478 1072.494, 402.859 1071.795, 399.291 1070.756, 395.807 1069.385, 392.439 1067.695, 389.220 1065.702, 386.178 1063.425, 383.343 1060.886, 380.741 1058.107, 378.397 1055.114, 376.331 1051.936, 374.564 1048.603, 373.112 1045.145, 371.988 1041.594, 371.204 1037.985, 370.766 1034.350, 370.678 1030.724, 370.941 1027.139, 371.553 1023.631, 372.508 1020.231, 373.798 1016.972, 375.409 1013.883, 377.328 1010.994, 379.535 1008.332, 382.012 1005.920, 384.733 1003.783, 387.675 1001.940, 390.809 1000.408, 394.106 999.201, 397.536 999.173, 397.637 998.304, 401.165 997.779, 404.760 997.603, 408.389 " />
            <path fill="none" stroke-width="3.0" stroke-linecap="butt" stroke-opacity="1.0" stroke="rgb(0, 0, 0)" stroke-linejoin="round" d=" M 1063.425, 433.249 1060.886, 435.851 1058.107, 438.196 1055.114, 440.261 1051.936, 442.029 1048.603, 443.481 1045.145, 444.604 1041.594, 445.389 1037.985, 445.827 1034.350, 445.915 1030.724, 445.652 1027.139, 445.039 1023.631, 444.084 1020.231, 442.795 1016.972, 441.183 1013.883, 439.265 1010.994, 437.057 1008.332, 434.581 1005.920, 431.859 1003.783, 428.918 1001.940, 425.784 1000.408, 422.486 999.201, 419.056 998.331, 415.526 997.805, 411.928 997.630, 408.296 997.805, 404.664 998.331, 401.067 999.201, 397.536 " />
            <path fill="none" stroke-width="3.0" stroke-linecap="butt" stroke-opacity="1.0" stroke="rgb(0, 0, 0)" stroke-linejoin="round" d=" M 1232.829, 437.893 1234.841, 437.262 1237.054, 436.916 1239.294, 436.903 1241.510, 437.222 1243.655, 437.867 1245.680, 438.824 1247.541, 440.070 1249.196, 441.579 1250.609, 443.317 1253.176, 445.909 1255.983, 448.240 1259.003, 450.288 1262.207, 452.034 1265.564, 453.461 1269.045, 454.556 1272.615, 455.308 1276.241, 455.711 1279.890, 455.760 1283.526, 455.456 1287.115, 454.801 1287.346, 454.741 1290.857, 453.740 1294.255, 452.404 1297.507, 450.745 1300.583, 448.778 1303.455, 446.522 1306.094, 443.999 1308.476, 441.232 1310.578, 438.247 1312.382, 435.072 1313.869, 431.738 1315.026, 428.275 1315.843, 424.716 1316.310, 421.095 1316.424, 417.446 1316.184, 413.802 1315.592, 410.199 1314.654, 406.671 1313.378, 403.250 1311.777, 399.969 1309.865, 396.858 1307.661, 393.947 1303.897, 389.726 1299.877, 385.748 1295.615, 382.030 1291.129, 378.587 1286.436, 375.431 1281.555, 372.575 1276.504, 370.031 1271.303, 367.809 1265.974, 365.916 1260.537, 364.361 1255.012, 363.150 1249.423, 362.287 1243.791, 361.776 1238.138, 361.619 1232.486, 361.816 1226.857, 362.367 1221.274, 363.270 1215.759, 364.521 1210.333, 366.114 1205.017, 368.045 1199.833, 370.305 1194.800, 372.885 1189.939, 375.775 1185.268, 378.964 1185.110, 379.078 1180.651, 382.551 1176.419, 386.296 1172.430, 390.299 1168.700, 394.545 1165.243, 399.015 1162.072, 403.694 1159.202, 408.562 1156.641, 413.600 1154.401, 418.789 1152.491, 424.108 1150.918, 429.536 1149.688, 435.052 1148.806, 440.634 1148.275, 446.260 1148.098, 451.909 1148.098, 461.909 1148.098, 471.909 1148.098, 481.909 1148.098, 487.319 " />
            <path fill="none" stroke-width="3.0" stroke-linecap="butt" stroke-opacity="1.0" stroke="rgb(0, 0, 0)" stroke-linejoin="round" d=" M 1139.207, 562.578 1138.873, 562.562 1135.630, 562.407 1135.506, 562.392 1131.964, 561.882 1128.486, 561.039 1125.105, 559.868 1121.850, 558.382 1118.751, 556.593 1115.836, 554.517 1113.131, 552.173 1110.662, 549.584 1108.450, 546.771 1106.515, 543.760 1104.875, 540.580 1103.546, 537.258 1102.537, 533.824 1101.860, 530.310 1101.520, 526.748 1101.520, 523.170 1101.860, 519.607 1102.537, 516.094 1103.546, 512.660 1104.875, 509.338 1106.515, 506.157 1108.450, 503.147 1110.662, 500.334 1113.131, 497.744 1115.836, 495.401 1118.751, 493.325 1121.850, 491.536 1125.105, 490.049 1128.486, 488.879 1128.605, 488.843 1132.085, 487.999 1135.630, 487.489 1139.207, 487.319 1148.098, 487.319 1148.231, 487.319 1148.231, 477.319 1148.231, 467.319 1148.231, 457.319 1148.231, 451.847 1148.408, 446.194 1148.939, 440.564 1149.822, 434.978 1151.053, 429.458 1152.627, 424.026 1154.539, 418.703 1156.780, 413.511 1159.342, 408.469 1162.215, 403.598 1165.387, 398.916 1168.847, 394.442 1172.580, 390.194 1176.572, 386.188 1180.807, 382.440 1185.268, 378.964 " />
            <path fill="none" stroke-width="3.0" stroke-linecap="butt" stroke-opacity="1.0" stroke="rgb(0, 0, 0)" stroke-linejoin="round" d=" M 1135.630, 562.407 1132.085, 561.898 1128.605, 561.054 1125.221, 559.882 1121.964, 558.395 1118.863, 556.604 1115.946, 554.527 1113.239, 552.182 1110.768, 549.590 1108.555, 546.775 1106.619, 543.763 1104.978, 540.580 1103.647, 537.256 1102.638, 533.820 1101.960, 530.303 1101.620, 526.739 1101.620, 523.158 1101.960, 519.593 1102.638, 516.077 1103.647, 512.641 1104.978, 509.316 1106.619, 506.133 1108.555, 503.121 1110.768, 500.306 1113.239, 497.714 1115.946, 495.369 1118.863, 493.292 1121.964, 491.502 1125.221, 490.014 1128.605, 488.843 " />
            <path fill="none" stroke-width="3.0" stroke-linecap="butt" stroke-opacity="1.0" stroke="rgb(0, 0, 0)" stroke-linejoin="round" d=" M 1133.096, 562.578 1139.207, 562.578 " />
            <path fill="none" stroke-width="3.0" stroke-linecap="butt" stroke-opacity="1.0" stroke="rgb(0, 0, 0)" stroke-linejoin="round" d=" M 1138.873, 562.562 1132.974, 562.562 1133.096, 562.578 1135.164, 562.726 1135.238, 562.731 " />
            <path fill="none" stroke-width="3.0" stroke-linecap="butt" stroke-opacity="1.0" stroke="rgb(0, 0, 0)" stroke-linejoin="round" d=" M 1135.164, 562.726 1137.212, 563.171 1139.223, 563.921 1141.106, 564.950 1142.824, 566.236 1144.342, 567.753 1145.628, 569.471 1146.656, 571.355 1147.406, 573.365 1147.862, 575.462 1148.016, 577.603 1148.016, 587.603 1148.016, 597.603 1148.016, 607.603 1148.016, 617.603 1148.016, 627.603 1148.016, 634.008 1148.186, 637.582 1148.695, 641.124 1149.539, 644.602 1150.709, 647.983 1152.196, 651.238 1153.985, 654.338 1156.061, 657.252 1158.404, 659.957 1160.994, 662.426 1163.807, 664.638 1166.817, 666.573 1166.963, 666.662 1170.146, 668.303 1173.470, 669.634 1176.906, 670.643 1180.422, 671.321 1183.987, 671.661 1187.568, 671.661 1191.133, 671.321 1194.649, 670.643 1198.085, 669.634 1201.410, 668.303 1204.593, 666.662 1207.605, 664.726 1210.420, 662.513 1213.012, 660.042 1215.357, 657.335 1217.434, 654.418 1219.224, 651.317 1220.712, 648.060 1221.883, 644.676 1222.727, 641.196 1223.237, 637.651 1223.407, 634.074 1223.407, 624.074 1223.407, 614.074 1223.407, 604.074 1223.407, 594.074 1223.407, 584.074 1223.407, 577.630 1223.561, 575.488 1224.017, 573.389 1224.768, 571.377 1225.797, 569.492 1227.084, 567.773 1228.602, 566.254 1230.322, 564.967 1232.206, 563.938 1234.219, 563.188 1236.317, 562.731 1238.459, 562.578 1240.621, 562.578 1244.198, 562.407 1247.743, 561.898 1251.223, 561.054 1254.607, 559.882 1257.864, 558.395 1260.965, 556.604 1263.882, 554.527 1266.589, 552.182 1269.060, 549.590 1271.273, 546.775 1273.209, 543.763 1274.850, 540.580 1276.181, 537.256 1277.190, 533.820 1277.868, 530.303 1278.208, 526.739 1278.208, 523.158 1277.868, 519.593 1277.190, 516.077 1276.181, 512.641 1274.850, 509.316 1273.209, 506.133 1271.273, 503.121 1269.060, 500.306 1266.589, 497.714 1263.882, 495.369 1260.965, 493.292 1257.864, 491.502 1254.607, 490.014 1251.223, 488.843 1247.743, 487.999 1244.198, 487.489 1240.621, 487.319 1230.621, 487.319 1223.407, 487.319 1223.407, 477.319 1223.407, 467.319 1223.407, 457.319 1223.407, 451.847 1223.574, 449.612 1224.071, 447.426 1224.887, 445.339 1226.004, 443.396 1227.396, 441.640 1229.035, 440.111 1230.882, 438.841 1232.829, 437.893 1232.897, 437.860 " />
            <path fill="none" stroke-width="3.0" stroke-linecap="butt" stroke-opacity="1.0" stroke="rgb(0, 0, 0)" stroke-linejoin="round" d=" M 1166.963, 666.662 1163.950, 664.726 1161.136, 662.513 1158.544, 660.042 1156.199, 657.335 1154.122, 654.418 1152.331, 651.317 1150.844, 648.060 1149.672, 644.676 1148.828, 641.196 1148.318, 637.651 1148.148, 634.074 1148.148, 624.074 1148.148, 614.074 1148.148, 604.074 1148.148, 594.074 1148.148, 584.074 1148.148, 577.630 1147.995, 575.488 1147.538, 573.389 1146.788, 571.377 1145.759, 569.492 1144.472, 567.773 1142.953, 566.254 1141.234, 564.967 1139.349, 563.938 1137.337, 563.188 1135.238, 562.731 " />
            <path fill="none" stroke-width="3.0" stroke-linecap="butt" stroke-opacity="1.0" stroke="rgb(0, 0, 0)" stroke-linejoin="round" d=" M 1287.346, 454.741 1283.754, 455.396 1280.115, 455.701 1276.464, 455.651 1272.836, 455.248 1269.263, 454.495 1265.780, 453.400 1262.420, 451.972 1259.214, 450.225 1256.192, 448.175 1253.383, 445.842 1250.813, 443.248 1249.400, 441.509 1247.744, 440.000 1245.882, 438.752 1243.855, 437.795 1241.709, 437.150 1239.491, 436.830 1237.250, 436.844 1235.035, 437.190 1232.897, 437.860 " />
            <path fill="none" stroke-width="3.0" stroke-linecap="butt" stroke-opacity="1.0" stroke="rgb(0, 0, 0)" stroke-linejoin="round" d=" M 1423.209, 603.587 1423.069, 603.560 1419.693, 602.910 1416.257, 601.901 1412.932, 600.570 1409.749, 598.929 1406.737, 596.993 1403.922, 594.779 1401.330, 592.308 1398.985, 589.602 1396.908, 586.685 1395.118, 583.584 1393.630, 580.326 1392.459, 576.942 1391.615, 573.462 1391.105, 569.918 1390.934, 566.341 1390.934, 556.341 1390.934, 546.341 1390.934, 536.341 1390.934, 528.711 1390.764, 525.134 1390.255, 521.590 1389.410, 518.110 1388.239, 514.726 1386.751, 511.468 1384.961, 508.367 1382.884, 505.450 1380.539, 502.744 1377.947, 500.273 1375.132, 498.059 1372.120, 496.123 1368.937, 494.482 1365.612, 493.151 1362.176, 492.142 1358.660, 491.464 1355.095, 491.124 1351.514, 491.124 1347.950, 491.464 1347.676, 491.499 1344.162, 492.176 1340.729, 493.184 1337.407, 494.514 1334.226, 496.154 1331.216, 498.089 1328.403, 500.301 1325.813, 502.770 1323.469, 505.474 1321.394, 508.389 1319.605, 511.488 1318.118, 514.743 1316.948, 518.125 1316.104, 521.603 1315.595, 525.145 1315.424, 528.719 1315.424, 538.719 1315.424, 548.719 1315.424, 558.719 1315.424, 566.322 1315.604, 572.681 1316.141, 579.019 1317.035, 585.316 1318.282, 591.554 1319.879, 597.711 1321.821, 603.768 1324.101, 609.706 1326.711, 615.507 1329.645, 621.151 1332.892, 626.620 1336.442, 631.898 1340.284, 636.968 1344.406, 641.813 1348.794, 646.418 1353.435, 650.768 1358.313, 654.849 1363.414, 658.650 1368.721, 662.156 1374.217, 665.358 1379.885, 668.245 1385.707, 670.809 1391.664, 673.039 1397.737, 674.931 1398.046, 675.026 1404.220, 676.574 1410.472, 677.770 1416.781, 678.613 1423.128, 679.099 1429.492, 679.226 1435.853, 678.994 1442.191, 678.404 1448.486, 677.458 1450.665, 677.229 1452.854, 677.319 1454.857, 677.698 1455.006, 677.726 " />
            <path fill="none" stroke-width="3.0" stroke-linecap="butt" stroke-opacity="1.0" stroke="rgb(0, 0, 0)" stroke-linejoin="round" d=" M 1423.069, 603.560 1426.445, 603.883 1430.023, 603.883 1433.585, 603.543 1437.099, 602.865 1440.532, 601.857 1443.855, 600.527 1447.035, 598.887 1450.046, 596.953 1452.859, 594.741 1455.448, 592.271 1457.792, 589.567 1459.868, 586.652 1461.657, 583.553 1463.143, 580.298 1464.314, 576.916 1465.157, 573.439 1465.667, 569.897 1465.837, 566.322 1465.837, 556.322 1465.837, 546.322 1465.837, 536.322 1465.837, 528.719 1466.007, 525.145 1466.516, 521.603 1467.360, 518.125 1468.530, 514.743 1470.017, 511.488 1471.806, 508.389 1473.882, 505.474 1476.225, 502.770 1478.815, 500.301 1481.628, 498.089 1484.638, 496.154 1487.819, 494.514 1491.141, 493.184 1494.575, 492.176 1498.089, 491.499 1501.651, 491.159 1502.033, 491.124 1505.614, 491.124 1509.179, 491.464 1512.695, 492.142 1516.131, 493.151 1519.455, 494.482 1522.638, 496.123 1525.651, 498.059 1528.466, 500.273 1531.057, 502.744 1533.402, 505.450 1535.479, 508.367 1537.270, 511.468 1538.758, 514.726 1539.929, 518.110 1540.773, 521.590 1541.283, 525.134 1541.453, 528.711 1541.453, 538.711 1541.453, 548.711 1541.453, 558.711 1541.453, 568.711 1541.453, 578.711 1541.453, 588.711 1541.453, 598.711 1541.453, 608.711 1541.453, 618.711 1541.453, 628.711 1541.453, 638.711 1541.453, 648.711 1541.453, 658.711 1541.453, 668.711 1541.453, 678.711 1541.453, 688.711 1541.453, 698.711 1541.453, 708.711 1541.453, 718.711 1541.453, 728.711 1541.453, 738.711 1541.453, 748.711 1541.453, 754.489 1541.275, 760.819 1540.743, 767.128 1539.858, 773.398 1538.623, 779.609 1537.041, 785.741 1535.118, 791.774 1532.860, 797.690 1530.273, 803.470 1527.367, 809.095 1524.150, 814.549 1520.632, 819.814 1516.824, 824.874 1512.739, 829.712 1508.389, 834.313 1503.787, 838.664 1498.949, 842.749 1493.890, 846.557 1488.625, 850.075 1483.171, 853.292 1477.545, 856.198 1471.765, 858.785 1465.849, 861.043 1459.816, 862.966 1453.684, 864.547 1447.474, 865.783 1441.204, 866.668 1434.894, 867.200 1428.564, 867.378 1422.234, 867.200 1415.925, 866.668 1409.655, 865.783 1403.444, 864.547 1397.312, 862.966 1391.279, 861.043 1385.363, 858.785 1379.583, 856.198 1373.958, 853.292 1368.504, 850.075 1363.239, 846.557 1358.179, 842.749 1357.898, 842.536 1353.064, 838.453 1348.466, 834.106 1344.118, 829.508 1340.036, 824.673 1336.231, 819.617 1332.715, 814.356 1329.500, 808.906 1326.596, 803.284 1324.012, 797.508 1321.755, 791.596 1319.833, 785.567 1318.253, 779.440 1317.018, 773.234 1316.134, 766.968 1315.602, 760.663 1315.424, 754.338 1315.595, 750.763 1316.104, 747.221 1316.948, 743.744 1318.118, 740.362 1319.605, 737.107 1321.394, 734.008 1323.469, 731.093 1325.813, 728.389 1328.403, 725.919 1331.216, 723.707 1334.226, 721.772 1337.407, 720.133 1340.729, 718.803 1344.162, 717.795 1347.676, 717.117 1351.238, 716.777 1354.817, 716.777 1358.379, 717.117 1361.893, 717.795 1365.326, 718.803 1368.648, 720.133 1368.937, 720.260 1372.120, 721.901 1375.132, 723.837 1377.947, 726.050 1380.539, 728.521 1382.884, 731.228 1384.961, 734.145 1386.751, 737.246 1388.239, 740.503 1389.410, 743.887 1390.255, 747.367 1390.764, 750.912 1390.934, 754.489 1391.105, 758.066 1391.615, 761.610 1392.459, 765.090 1393.630, 768.474 1395.118, 771.732 1396.908, 774.833 1398.985, 777.750 1401.330, 780.456 1403.922, 782.927 1406.737, 785.141 1409.665, 787.023 1409.749, 787.077 1412.932, 788.718 1416.257, 790.049 1419.693, 791.058 1423.209, 791.735 1426.774, 792.076 1430.355, 792.076 1433.919, 791.735 1437.436, 791.058 1440.872, 790.049 1444.196, 788.718 1447.379, 787.077 1450.391, 785.141 1453.206, 782.927 1455.798, 780.456 1458.143, 777.750 1460.220, 774.833 1462.011, 771.732 1463.498, 768.474 1464.669, 765.090 1465.514, 761.610 1466.023, 758.066 1466.194, 754.489 1466.194, 744.489 1466.194, 734.489 1466.194, 724.489 1466.194, 714.489 1466.194, 704.489 1466.194, 694.489 1466.194, 692.274 1466.034, 690.089 1465.559, 687.950 1464.779, 685.903 1463.710, 683.990 1462.374, 682.254 1460.801, 680.729 1459.022, 679.449 1457.077, 678.441 1455.006, 677.726 " />
            <path fill="none" stroke-width="3.0" stroke-linecap="butt" stroke-opacity="1.0" stroke="rgb(0, 0, 0)" stroke-linejoin="round" d=" M 1454.857, 677.698 1456.727, 678.344 1458.671, 679.351 1460.448, 680.630 1462.020, 682.153 1463.354, 683.889 1464.423, 685.800 1465.203, 687.845 1465.677, 689.983 1465.837, 692.166 1465.837, 702.166 1465.837, 712.166 1465.837, 722.166 1465.837, 732.166 1465.837, 742.166 1465.837, 752.166 1465.837, 754.338 1465.667, 757.912 1465.157, 761.454 1464.314, 764.932 1463.143, 768.313 1461.657, 771.568 1459.868, 774.667 1457.792, 777.582 1455.448, 780.287 1452.859, 782.756 1450.046, 784.968 1447.035, 786.903 1443.855, 788.543 1440.532, 789.873 1437.099, 790.881 1433.585, 791.558 1430.023, 791.898 1426.445, 791.898 1422.882, 791.558 1419.369, 790.881 1415.935, 789.873 1412.613, 788.543 1409.665, 787.023 " />
            <path fill="none" stroke-width="3.0" stroke-linecap="butt" stroke-opacity="1.0" stroke="rgb(0, 0, 0)" stroke-linejoin="round" d=" M 1358.179, 842.749 1353.341, 838.664 1348.740, 834.313 1344.389, 829.712 1340.304, 824.874 1336.496, 819.814 1332.978, 814.549 1329.761, 809.095 1326.855, 803.470 1324.268, 797.690 1322.010, 791.774 1320.087, 785.741 1318.506, 779.609 1317.270, 773.398 1316.385, 767.128 1315.853, 760.819 1315.675, 754.489 1315.846, 750.912 1316.355, 747.367 1317.199, 743.887 1318.371, 740.503 1319.858, 737.246 1321.649, 734.145 1323.726, 731.228 1326.071, 728.521 1328.663, 726.050 1331.478, 723.837 1334.490, 721.901 1337.673, 720.260 1340.997, 718.929 1344.433, 717.920 1347.950, 717.242 1351.514, 716.902 1355.095, 716.902 1358.660, 717.242 1362.176, 717.920 1365.612, 718.929 1368.937, 720.260 " />
            <path fill="none" stroke-width="3.0" stroke-linecap="butt" stroke-opacity="1.0" stroke="rgb(0, 0, 0)" stroke-linejoin="round" d=" M 1502.033, 491.124 1498.468, 491.464 1494.952, 492.142 1491.516, 493.151 1488.192, 494.482 1485.009, 496.123 1481.996, 498.059 1479.181, 500.273 1476.589, 502.744 1474.245, 505.450 1472.167, 508.367 1470.377, 511.468 1468.889, 514.726 1467.718, 518.110 1466.874, 521.590 1466.364, 525.134 1466.194, 528.711 1466.194, 538.711 1466.194, 548.711 1466.194, 558.711 1466.194, 566.341 1466.023, 569.918 1465.514, 573.462 1464.669, 576.942 1463.498, 580.326 1462.011, 583.584 1460.220, 586.685 1458.143, 589.602 1455.798, 592.308 1453.206, 594.779 1450.391, 596.993 1447.379, 598.929 1444.196, 600.570 1440.872, 601.901 1437.436, 602.910 1433.919, 603.587 1430.355, 603.928 1426.774, 603.928 1423.209, 603.587 " />
            <path fill="none" stroke-width="3.0" stroke-linecap="butt" stroke-opacity="1.0" stroke="rgb(0, 0, 0)" stroke-linejoin="round" d=" M 1347.950, 491.464 1344.433, 492.142 1340.997, 493.151 1337.673, 494.482 1334.490, 496.123 1331.478, 498.059 1328.663, 500.273 1326.071, 502.744 1323.726, 505.450 1321.649, 508.367 1319.858, 511.468 1318.371, 514.726 1317.199, 518.110 1316.355, 521.590 1315.846, 525.134 1315.675, 528.711 1315.675, 538.711 1315.675, 548.711 1315.675, 558.711 1315.675, 566.341 1315.855, 572.704 1316.392, 579.046 1317.287, 585.348 1318.535, 591.590 1320.133, 597.752 1322.076, 603.813 1324.357, 609.756 1326.970, 615.560 1329.906, 621.208 1333.155, 626.682 1336.708, 631.963 1340.552, 637.036 1344.677, 641.885 1349.068, 646.493 1353.712, 650.846 1358.594, 654.930 1363.699, 658.733 1369.010, 662.242 1374.510, 665.447 1380.181, 668.336 1386.007, 670.901 1391.968, 673.133 1398.046, 675.026 " />
            <path fill="none" stroke-width="3.0" stroke-linecap="butt" stroke-opacity="1.0" stroke="rgb(0, 0, 0)" stroke-linejoin="round" d=" M 634.068, 874.460 634.246, 877.409 634.778, 880.314 635.657, 883.134 636.869, 885.827 638.397, 888.355 640.219, 890.680 642.307, 892.768 644.632, 894.590 647.160, 896.118 649.853, 897.330 652.673, 898.209 655.579, 898.741 658.527, 898.920 661.475, 898.741 664.380, 898.209 667.200, 897.330 669.894, 896.118 672.421, 894.590 674.746, 892.768 676.835, 890.680 677.034, 890.433 678.855, 888.109 680.382, 885.583 681.593, 882.892 682.471, 880.074 683.003, 877.171 683.181, 874.224 683.003, 871.278 682.471, 868.375 681.593, 865.557 680.382, 862.866 678.855, 860.340 677.034, 858.016 674.947, 855.929 672.624, 854.109 670.098, 852.582 667.407, 851.371 664.589, 850.493 661.686, 849.961 658.739, 849.782 655.793, 849.961 652.890, 850.493 650.072, 851.371 647.381, 852.582 644.855, 854.109 642.531, 855.929 642.307, 856.152 640.219, 858.241 638.397, 860.566 636.869, 863.093 635.657, 865.787 634.778, 868.607 634.246, 871.512 634.068, 874.460 " />
            <path fill="none" stroke-width="3.0" stroke-linecap="butt" stroke-opacity="1.0" stroke="rgb(0, 0, 0)" stroke-linejoin="round" d=" M 642.307, 856.152 644.632, 854.331 647.160, 852.803 649.853, 851.590 652.673, 850.712 655.579, 850.179 658.527, 850.001 661.475, 850.179 664.380, 850.712 667.200, 851.590 669.894, 852.803 672.421, 854.331 674.746, 856.152 676.835, 858.241 678.656, 860.566 680.184, 863.093 681.397, 865.787 682.275, 868.607 682.808, 871.512 682.986, 874.460 682.808, 877.409 682.275, 880.314 681.397, 883.134 680.184, 885.827 678.656, 888.355 676.835, 890.680 " />
            <path fill="none" stroke-width="3.0" stroke-linecap="butt" stroke-opacity="1.0" stroke="rgb(0, 0, 0)" stroke-linejoin="round" d=" M 1148.917, 213.905 1149.095, 218.001 1149.631, 222.067 1150.518, 226.070 1151.751, 229.981 1153.321, 233.769 1155.214, 237.406 1157.417, 240.865 1159.913, 244.118 1162.684, 247.141 1165.707, 249.912 1168.960, 252.408 1172.419, 254.611 1176.056, 256.505 1179.844, 258.074 1183.755, 259.307 1187.758, 260.194 1191.824, 260.730 1195.921, 260.908 1200.017, 260.730 1204.083, 260.194 1208.086, 259.307 1211.997, 258.074 1215.785, 256.505 1219.422, 254.611 1222.881, 252.408 1226.134, 249.912 1229.157, 247.141 1229.347, 246.935 1232.119, 243.909 1234.617, 240.654 1236.822, 237.193 1238.717, 233.553 1240.287, 229.762 1241.521, 225.849 1242.409, 221.842 1242.945, 217.774 1243.124, 213.674 1242.945, 209.575 1242.409, 205.507 1241.521, 201.500 1240.287, 197.587 1238.717, 193.796 1236.822, 190.156 1234.617, 186.695 1232.119, 183.440 1229.347, 180.414 1226.322, 177.642 1223.066, 175.144 1219.605, 172.939 1215.966, 171.044 1212.175, 169.474 1208.261, 168.240 1204.255, 167.352 1200.187, 166.816 1196.087, 166.637 1191.987, 166.816 1187.919, 167.352 1183.913, 168.240 1179.999, 169.474 1176.208, 171.044 1172.568, 172.939 1169.108, 175.144 1165.852, 177.642 1162.827, 180.414 1160.054, 183.440 1157.557, 186.695 1155.352, 190.156 1155.214, 190.403 1153.321, 194.040 1151.751, 197.828 1150.518, 201.739 1149.631, 205.742 1149.095, 209.808 1148.917, 213.905 " />
            <path fill="none" stroke-width="3.0" stroke-linecap="butt" stroke-opacity="1.0" stroke="rgb(0, 0, 0)" stroke-linejoin="round" d=" M 1229.347, 246.935 1226.322, 249.707 1223.066, 252.205 1219.605, 254.410 1215.966, 256.305 1212.175, 257.875 1208.261, 259.109 1204.255, 259.997 1200.187, 260.533 1196.087, 260.712 1191.987, 260.533 1187.919, 259.997 1183.913, 259.109 1179.999, 257.875 1176.208, 256.305 1172.568, 254.410 1169.108, 252.205 1165.852, 249.707 1162.827, 246.935 1160.054, 243.909 1157.557, 240.654 1155.352, 237.193 1153.457, 233.553 1151.887, 229.762 1150.653, 225.849 1149.765, 221.842 1149.229, 217.774 1149.050, 213.674 1149.229, 209.575 1149.765, 205.507 1150.653, 201.500 1151.887, 197.587 1153.457, 193.796 1155.352, 190.156 " />
            <path fill="none" stroke-width="3.0" stroke-linecap="butt" stroke-opacity="1.0" stroke="rgb(0, 0, 0)" stroke-linejoin="round" d=" M 620.070, 179.867 620.246, 182.429 620.768, 184.944 621.628, 187.363 622.809, 189.643 624.290, 191.741 626.043, 193.618 626.279, 193.862 628.269, 195.482 630.462, 196.815 632.815, 197.837 635.286, 198.530 637.828, 198.879 640.395, 198.879 642.937, 198.530 645.408, 197.837 647.761, 196.815 649.954, 195.482 651.945, 193.862 653.696, 191.987 655.176, 189.890 656.357, 187.612 657.216, 185.194 657.738, 182.681 657.913, 180.121 657.738, 177.561 657.216, 175.049 656.357, 172.631 655.176, 170.352 653.696, 168.256 653.480, 167.994 651.727, 166.117 649.735, 164.496 647.541, 163.162 645.186, 162.139 642.713, 161.446 640.169, 161.096 637.601, 161.096 635.057, 161.446 632.584, 162.139 630.229, 163.162 628.035, 164.496 626.043, 166.117 624.290, 167.994 622.809, 170.092 621.628, 172.372 620.768, 174.791 620.246, 177.305 620.070, 179.867 " />
            <path fill="none" stroke-width="3.0" stroke-linecap="butt" stroke-opacity="1.0" stroke="rgb(0, 0, 0)" stroke-linejoin="round" d=" M 653.480, 167.994 654.961, 170.092 656.142, 172.372 657.002, 174.791 657.525, 177.305 657.700, 179.867 657.525, 182.429 657.002, 184.944 656.142, 187.363 654.961, 189.643 653.480, 191.741 651.727, 193.618 649.735, 195.239 647.541, 196.573 645.186, 197.596 642.713, 198.289 640.169, 198.638 637.601, 198.638 635.057, 198.289 632.584, 197.596 630.229, 196.573 628.035, 195.239 626.043, 193.618 " />
            <path fill="none" stroke-width="3.0" stroke-linecap="butt" stroke-opacity="1.0" stroke="rgb(0, 0, 0)" stroke-linejoin="round" d=" M 1049.990, 90.596 1050.169, 95.077 1050.702, 99.530 1051.588, 103.927 1052.821, 108.239 1054.392, 112.440 1056.292, 116.502 1058.508, 120.401 1061.028, 124.111 1063.834, 127.610 1066.909, 130.874 1070.234, 133.884 1073.788, 136.620 1077.548, 139.065 1081.490, 141.204 1085.589, 143.023 1089.820, 144.510 1094.156, 145.657 1098.570, 146.455 1103.032, 146.900 1107.516, 146.989 1111.993, 146.722 1116.435, 146.100 1120.813, 145.127 1125.100, 143.809 1129.268, 142.154 1133.292, 140.174 1137.146, 137.880 1140.806, 135.288 1144.248, 132.412 1147.451, 129.273 1150.394, 125.889 1153.059, 122.281 1155.429, 118.474 1157.489, 114.490 1157.628, 114.190 1159.366, 110.052 1160.770, 105.789 1161.831, 101.428 1162.542, 96.997 1162.898, 92.523 1162.898, 88.035 1162.542, 83.561 1161.831, 79.129 1160.770, 74.768 1159.366, 70.506 1157.628, 66.368 1155.567, 62.381 1153.195, 58.571 1150.528, 54.961 1147.583, 51.574 1144.378, 48.433 1140.934, 45.555 1137.271, 42.961 1133.415, 40.666 1129.388, 38.684 1125.216, 37.028 1120.926, 35.709 1116.545, 34.736 1112.101, 34.113 1107.620, 33.845 1103.133, 33.935 1098.667, 34.380 1094.251, 35.179 1089.912, 36.326 1085.678, 37.815 1081.575, 39.635 1077.631, 41.775 1073.868, 44.222 1070.312, 46.960 1066.985, 49.972 1063.907, 53.238 1061.099, 56.739 1058.578, 60.452 1056.360, 64.354 1054.458, 68.419 1052.886, 72.623 1051.653, 76.938 1050.766, 81.338 1050.702, 81.661 1050.169, 86.114 1049.990, 90.596 " />
            <path fill="none" stroke-width="3.0" stroke-linecap="butt" stroke-opacity="1.0" stroke="rgb(0, 0, 0)" stroke-linejoin="round" d=" M 1157.628, 114.190 1155.567, 118.176 1153.195, 121.987 1150.528, 125.596 1147.583, 128.983 1144.378, 132.125 1140.934, 135.002 1137.271, 137.597 1133.415, 139.892 1129.388, 141.874 1125.216, 143.529 1120.926, 144.848 1116.545, 145.822 1112.101, 146.444 1107.620, 146.712 1103.133, 146.623 1098.667, 146.177 1094.251, 145.378 1089.912, 144.231 1085.678, 142.743 1081.575, 140.923 1077.631, 138.783 1073.868, 136.336 1070.312, 133.598 1066.985, 130.586 1063.907, 127.319 1061.099, 123.818 1058.578, 120.105 1056.360, 116.203 1054.458, 112.138 1052.886, 107.934 1051.653, 103.619 1050.766, 99.219 1050.232, 94.763 1050.054, 90.279 1050.232, 85.794 1050.766, 81.338 " />
            <path fill="none" stroke-width="3.0" stroke-linecap="butt" stroke-opacity="1.0" stroke="rgb(0, 0, 0)" stroke-linejoin="round" d=" M 691.920, 803.608 692.096, 807.239 692.621, 810.837 693.491, 814.368 694.698, 817.798 696.230, 821.095 698.073, 824.229 700.211, 827.171 702.622, 829.892 705.284, 832.369 708.173, 834.576 711.262, 836.495 714.522, 838.106 717.921, 839.396 721.430, 840.351 725.014, 840.963 728.640, 841.226 732.275, 841.138 735.885, 840.700 739.435, 839.916 742.893, 838.792 746.227, 837.340 749.404, 835.573 752.397, 833.507 755.176, 831.163 757.716, 828.561 759.993, 825.726 760.134, 825.524 762.125, 822.485 763.813, 819.268 765.183, 815.903 766.222, 812.421 766.921, 808.855 767.271, 805.239 767.271, 801.605 766.921, 797.989 766.222, 794.423 765.183, 790.941 763.813, 787.576 762.125, 784.359 760.134, 781.319 757.858, 778.486 755.320, 775.886 752.543, 773.543 749.553, 771.479 746.377, 769.713 743.046, 768.262 739.591, 767.140 736.043, 766.355 732.436, 765.918 728.803, 765.830 725.179, 766.093 721.598, 766.705 718.092, 767.659 714.695, 768.948 711.438, 770.558 708.351, 772.475 705.464, 774.681 705.284, 774.847 702.622, 777.323 700.211, 780.045 698.073, 782.986 696.230, 786.120 694.698, 789.418 693.491, 792.848 692.621, 796.378 692.096, 799.976 691.920, 803.608 " />
            <path fill="none" stroke-width="3.0" stroke-linecap="butt" stroke-opacity="1.0" stroke="rgb(0, 0, 0)" stroke-linejoin="round" d=" M 705.284, 774.847 708.173, 772.639 711.262, 770.721 714.522, 769.109 717.921, 767.820 721.430, 766.865 725.014, 766.252 728.640, 765.989 732.275, 766.077 735.885, 766.515 739.435, 767.300 742.893, 768.423 746.227, 769.875 749.404, 771.643 752.397, 773.708 755.176, 776.053 757.716, 778.655 759.993, 781.490 761.985, 784.531 763.675, 787.751 765.046, 791.118 766.086, 794.602 766.784, 798.171 767.135, 801.790 767.135, 805.426 766.784, 809.045 766.086, 812.613 765.046, 816.097 763.675, 819.465 761.985, 822.684 759.993, 825.726 " />
            <path fill="none" stroke-width="3.0" stroke-linecap="butt" stroke-opacity="1.0" stroke="rgb(0, 0, 0)" stroke-linejoin="round" d=" M 1089.796, 745.990 1089.975, 750.087 1090.510, 754.152 1091.398, 758.156 1092.631, 762.067 1094.200, 765.855 1096.093, 769.492 1096.189, 769.654 1098.394, 773.115 1100.892, 776.371 1103.664, 779.396 1106.690, 782.168 1109.945, 784.666 1113.406, 786.871 1117.046, 788.766 1120.837, 790.336 1124.750, 791.570 1128.757, 792.458 1132.825, 792.994 1136.925, 793.173 1141.024, 792.994 1145.093, 792.458 1149.099, 791.570 1153.012, 790.336 1156.803, 788.766 1160.443, 786.871 1163.904, 784.666 1167.159, 782.168 1170.185, 779.396 1172.957, 776.371 1175.455, 773.115 1177.660, 769.654 1179.555, 766.014 1181.125, 762.223 1182.359, 758.310 1183.247, 754.304 1183.783, 750.235 1183.962, 746.136 1183.783, 742.036 1183.247, 737.968 1182.359, 733.962 1181.125, 730.048 1179.555, 726.257 1177.660, 722.617 1175.455, 719.156 1172.957, 715.901 1170.185, 712.875 1167.159, 710.103 1167.013, 709.983 1163.760, 707.487 1160.302, 705.284 1156.665, 703.390 1152.876, 701.821 1148.965, 700.588 1144.962, 699.701 1140.896, 699.165 1136.800, 698.986 1132.703, 699.165 1128.638, 699.701 1124.634, 700.588 1120.724, 701.821 1116.935, 703.390 1113.298, 705.284 1109.840, 707.487 1106.586, 709.983 1103.563, 712.754 1100.793, 715.777 1098.297, 719.030 1096.093, 722.488 1094.200, 726.126 1092.631, 729.914 1091.398, 733.825 1090.510, 737.828 1089.975, 741.894 1089.796, 745.990 " />
            <path fill="none" stroke-width="3.0" stroke-linecap="butt" stroke-opacity="1.0" stroke="rgb(0, 0, 0)" stroke-linejoin="round" d=" M 1096.189, 769.654 1094.295, 766.014 1092.724, 762.223 1091.490, 758.310 1090.602, 754.304 1090.067, 750.235 1089.888, 746.136 1090.067, 742.036 1090.602, 737.968 1091.490, 733.962 1092.724, 730.048 1094.295, 726.257 1096.189, 722.617 1098.394, 719.156 1100.892, 715.901 1103.664, 712.875 1106.690, 710.103 1109.945, 707.605 1113.406, 705.400 1117.046, 703.506 1120.837, 701.935 1124.750, 700.701 1128.757, 699.813 1132.825, 699.278 1136.925, 699.099 1141.024, 699.278 1145.093, 699.813 1149.099, 700.701 1153.012, 701.935 1156.803, 703.506 1160.443, 705.400 1163.904, 707.605 1167.159, 710.103 " />
            <path fill="none" stroke-width="3.0" stroke-linecap="butt" stroke-opacity="1.0" stroke="rgb(0, 0, 0)" stroke-linejoin="round" d=" M 1477.569, 281.471 1477.744, 285.100 1478.269, 288.696 1479.139, 292.223 1480.345, 295.651 1481.876, 298.946 1483.718, 302.078 1485.854, 305.018 1488.263, 307.737 1490.924, 310.212 1493.811, 312.418 1496.898, 314.335 1500.155, 315.945 1503.552, 317.234 1507.058, 318.188 1510.640, 318.800 1514.263, 319.063 1517.896, 318.975 1521.503, 318.537 1525.051, 317.753 1528.506, 316.630 1528.907, 316.473 1532.241, 315.021 1535.419, 313.254 1538.411, 311.188 1541.190, 308.844 1543.730, 306.242 1546.007, 303.407 1547.999, 300.365 1549.689, 297.146 1551.060, 293.778 1552.100, 290.294 1552.798, 286.726 1553.149, 283.107 1553.149, 279.471 1552.798, 275.852 1552.100, 272.283 1551.060, 268.799 1549.689, 265.431 1547.999, 262.212 1546.007, 259.170 1543.730, 256.336 1541.190, 253.734 1538.411, 251.389 1535.419, 249.323 1532.241, 247.556 1528.907, 246.104 1525.449, 244.981 1521.899, 244.196 1518.289, 243.758 1514.654, 243.670 1511.028, 243.933 1507.444, 244.546 1503.935, 245.501 1500.536, 246.790 1497.276, 248.402 1496.898, 248.607 1493.811, 250.524 1490.924, 252.730 1488.263, 255.205 1485.854, 257.924 1483.718, 260.864 1481.876, 263.996 1480.345, 267.291 1479.139, 270.719 1478.269, 274.246 1477.744, 277.842 1477.569, 281.471 " />
            <path fill="none" stroke-width="3.0" stroke-linecap="butt" stroke-opacity="1.0" stroke="rgb(0, 0, 0)" stroke-linejoin="round" d=" M 1528.907, 316.473 1525.449, 317.597 1521.899, 318.381 1518.289, 318.819 1514.654, 318.907 1511.028, 318.644 1507.444, 318.032 1503.935, 317.077 1500.536, 315.787 1497.276, 314.176 1494.188, 312.257 1491.298, 310.050 1488.636, 307.573 1486.225, 304.852 1484.088, 301.910 1482.244, 298.776 1480.712, 295.479 1479.505, 292.049 1478.635, 288.518 1478.110, 284.920 1477.934, 281.289 1478.110, 277.657 1478.635, 274.059 1479.505, 270.529 1480.712, 267.099 1482.244, 263.801 1484.088, 260.667 1486.225, 257.725 1488.636, 255.004 1491.298, 252.528 1494.188, 250.320 1497.276, 248.402 " />
            <path fill="none" stroke-width="3.0" stroke-linecap="butt" stroke-opacity="1.0" stroke="rgb(0, 0, 0)" stroke-linejoin="round" d=" M 611.926, 269.067 612.105, 273.166 612.641, 277.235 613.529, 281.241 614.763, 285.154 616.333, 288.945 618.228, 292.585 620.432, 296.046 622.931, 299.302 625.703, 302.327 628.728, 305.099 631.984, 307.597 632.215, 307.761 635.673, 309.964 639.310, 311.858 643.099, 313.427 647.010, 314.660 651.013, 315.547 655.079, 316.083 659.175, 316.262 663.272, 316.083 667.337, 315.547 671.341, 314.660 675.251, 313.427 679.040, 311.858 682.677, 309.964 686.135, 307.761 689.389, 305.265 692.412, 302.494 695.182, 299.471 697.679, 296.218 699.882, 292.760 701.775, 289.122 703.344, 285.334 704.577, 281.423 705.465, 277.420 706.000, 273.354 706.179, 269.258 706.000, 265.161 705.465, 261.096 704.577, 257.092 703.344, 253.181 701.775, 249.393 699.882, 245.756 697.679, 242.297 695.182, 239.044 694.995, 238.832 692.223, 235.806 689.198, 233.034 685.942, 230.536 682.482, 228.331 678.842, 226.437 675.051, 224.866 671.137, 223.632 667.131, 222.744 663.062, 222.209 658.963, 222.030 654.863, 222.209 650.795, 222.744 646.789, 223.632 642.875, 224.866 639.084, 226.437 635.444, 228.331 631.984, 230.536 628.728, 233.034 625.703, 235.806 622.931, 238.832 620.432, 242.087 618.228, 245.548 616.333, 249.188 614.763, 252.979 613.529, 256.893 612.641, 260.899 612.105, 264.967 611.926, 269.067 " />
            <path fill="none" stroke-width="3.0" stroke-linecap="butt" stroke-opacity="1.0" stroke="rgb(0, 0, 0)" stroke-linejoin="round" d=" M 694.995, 238.832 697.493, 242.087 699.698, 245.548 701.593, 249.188 703.163, 252.979 704.397, 256.893 705.285, 260.899 705.821, 264.967 706.000, 269.067 705.821, 273.166 705.285, 277.235 704.397, 281.241 703.163, 285.154 701.593, 288.945 699.698, 292.585 697.493, 296.046 694.995, 299.302 692.223, 302.327 689.198, 305.099 685.942, 307.597 682.482, 309.802 678.842, 311.697 675.051, 313.267 671.137, 314.501 667.131, 315.389 663.062, 315.925 658.963, 316.104 654.863, 315.925 650.795, 315.389 646.789, 314.501 642.875, 313.267 639.084, 311.697 635.444, 309.802 631.984, 307.597 " />
            <path fill="none" stroke-width="3.0" stroke-linecap="butt" stroke-opacity="1.0" stroke="rgb(0, 0, 0)" stroke-linejoin="round" d=" M 705.878, 172.184 706.056, 176.880 706.588, 181.549 707.472, 186.164 708.703, 190.699 710.273, 195.128 712.173, 199.425 714.393, 203.567 716.920, 207.529 717.091, 207.763 719.909, 211.520 723.002, 215.053 726.354, 218.342 729.944, 221.368 733.754, 224.113 737.760, 226.563 741.940, 228.703 746.270, 230.520 750.724, 232.005 755.279, 233.149 759.906, 233.945 764.581, 234.388 769.276, 234.477 773.964, 234.211 778.619, 233.591 783.213, 232.620 787.721, 231.305 792.117, 229.653 796.375, 227.673 800.470, 225.376 804.381, 222.777 808.084, 219.889 811.557, 216.729 814.782, 213.316 817.740, 209.668 820.413, 205.808 822.786, 201.756 824.847, 197.536 826.582, 193.173 827.982, 188.691 829.039, 184.116 829.748, 179.474 830.103, 174.791 830.103, 170.095 829.748, 165.413 829.039, 160.771 827.982, 156.196 826.582, 151.714 826.488, 151.440 824.751, 147.073 822.690, 142.851 820.314, 138.796 817.639, 134.933 814.680, 131.283 811.453, 127.867 807.977, 124.705 804.271, 121.815 800.358, 119.214 796.259, 116.916 791.998, 114.934 787.600, 113.281 783.089, 111.965 778.491, 110.994 773.833, 110.373 769.142, 110.106 764.443, 110.195 759.765, 110.639 755.134, 111.436 750.577, 112.580 746.119, 114.066 741.786, 115.885 737.603, 118.026 733.594, 120.478 729.782, 123.225 726.189, 126.253 722.835, 129.544 719.739, 133.080 716.920, 136.839 714.393, 140.801 712.173, 144.943 710.273, 149.240 708.703, 153.669 707.472, 158.204 706.588, 162.819 706.056, 167.488 705.878, 172.184 " />
            <path fill="none" stroke-width="3.0" stroke-linecap="butt" stroke-opacity="1.0" stroke="rgb(0, 0, 0)" stroke-linejoin="round" d=" M 826.488, 151.440 827.889, 155.925 828.947, 160.504 829.656, 165.149 830.011, 169.834 830.011, 174.534 829.656, 179.219 828.947, 183.865 827.889, 188.443 826.488, 192.928 824.751, 197.295 822.690, 201.517 820.314, 205.572 817.639, 209.435 814.680, 213.085 811.453, 216.501 807.977, 219.663 804.271, 222.553 800.358, 225.154 796.259, 227.452 791.998, 229.434 787.600, 231.087 783.089, 232.403 778.491, 233.374 773.833, 233.995 769.142, 234.262 764.443, 234.173 759.765, 233.729 755.134, 232.932 750.577, 231.788 746.119, 230.302 741.786, 228.483 737.603, 226.342 733.594, 223.891 729.782, 221.143 726.189, 218.115 722.835, 214.824 719.739, 211.288 716.920, 207.529 " />
            <path fill="none" stroke-width="3.0" stroke-linecap="butt" stroke-opacity="1.0" stroke="rgb(0, 0, 0)" stroke-linejoin="round" d=" M 522.443, 769.801 522.622, 774.993 523.159, 780.160 524.052, 785.278 525.295, 790.323 526.883, 795.269 528.809, 800.095 531.063, 804.775 533.635, 809.289 536.512, 813.615 539.681, 817.733 543.126, 821.621 546.831, 825.263 550.779, 828.641 554.950, 831.738 559.325, 834.540 563.883, 837.033 568.602, 839.206 573.459, 841.048 578.433, 842.551 583.498, 843.707 588.630, 844.511 593.807, 844.959 599.001, 845.049 604.189, 844.780 609.347, 844.154 614.449, 843.173 619.471, 841.843 624.389, 840.169 629.181, 838.160 633.822, 835.826 638.291, 833.177 642.567, 830.225 646.628, 826.986 646.849, 826.784 650.675, 823.274 654.250, 819.510 657.557, 815.507 660.579, 811.286 663.303, 806.866 665.716, 802.269 667.806, 797.517 669.563, 792.632 670.978, 787.637 672.046, 782.556 672.761, 777.414 673.119, 772.234 673.119, 767.043 672.761, 761.863 672.046, 756.721 670.978, 751.641 669.563, 746.646 667.806, 741.760 665.716, 737.008 663.303, 732.411 660.579, 727.991 657.557, 723.770 654.250, 719.768 650.675, 716.003 646.849, 712.494 642.790, 709.257 638.518, 706.307 634.052, 703.660 629.414, 701.327 624.626, 699.320 619.711, 697.647 614.692, 696.318 609.594, 695.338 604.440, 694.712 599.256, 694.444 594.065, 694.533 588.892, 694.981 583.763, 695.784 578.702, 696.939 573.732, 698.441 568.878, 700.282 568.602, 700.395 563.883, 702.568 559.325, 705.062 554.950, 707.863 550.779, 710.961 546.831, 714.338 543.126, 717.980 539.681, 721.869 536.512, 725.986 533.635, 730.312 531.063, 734.826 528.809, 739.507 526.883, 744.332 525.295, 749.278 524.052, 754.323 523.159, 759.441 522.622, 764.608 522.443, 769.801 " />
            <path fill="none" stroke-width="3.0" stroke-linecap="butt" stroke-opacity="1.0" stroke="rgb(0, 0, 0)" stroke-linejoin="round" d=" M 568.602, 700.395 573.459, 698.553 578.433, 697.050 583.498, 695.894 588.630, 695.090 593.807, 694.642 599.001, 694.553 604.189, 694.822 609.347, 695.448 614.449, 696.428 619.471, 697.758 624.389, 699.432 629.181, 701.441 633.822, 703.775 638.291, 706.425 642.567, 709.376 646.628, 712.615 650.457, 716.127 654.034, 719.895 657.343, 723.900 660.368, 728.124 663.094, 732.547 665.508, 737.147 667.599, 741.903 669.358, 746.791 670.774, 751.790 671.843, 756.874 672.558, 762.020 672.916, 767.203 672.916, 772.398 672.558, 777.581 671.843, 782.727 670.774, 787.811 669.358, 792.810 667.599, 797.699 665.508, 802.454 663.094, 807.055 660.368, 811.477 657.343, 815.701 654.034, 819.707 650.457, 823.474 646.628, 826.986 " />
            <path fill="none" stroke-width="3.0" stroke-linecap="butt" stroke-opacity="1.0" stroke="rgb(0, 0, 0)" stroke-linejoin="round" d=" M 1193.456, 796.989 1193.631, 799.549 1194.154, 802.062 1195.013, 804.480 1196.193, 806.758 1197.673, 808.855 1197.841, 809.044 1199.594, 810.921 1201.586, 812.542 1203.780, 813.876 1206.135, 814.899 1208.608, 815.592 1211.152, 815.942 1213.720, 815.942 1216.264, 815.592 1218.737, 814.899 1221.092, 813.876 1223.286, 812.542 1225.278, 810.921 1227.031, 809.044 1228.512, 806.947 1229.693, 804.666 1230.553, 802.247 1231.075, 799.733 1231.251, 797.171 1231.075, 794.609 1230.553, 792.094 1229.693, 789.675 1228.512, 787.395 1227.031, 785.297 1225.278, 783.420 1225.091, 783.248 1223.100, 781.629 1220.908, 780.296 1218.554, 779.273 1216.083, 778.581 1213.541, 778.232 1210.975, 778.232 1208.433, 778.581 1205.962, 779.273 1203.608, 780.296 1201.415, 781.629 1199.425, 783.248 1197.673, 785.124 1196.193, 787.220 1195.013, 789.499 1194.154, 791.917 1193.631, 794.429 1193.456, 796.989 " />
            <path fill="none" stroke-width="3.0" stroke-linecap="butt" stroke-opacity="1.0" stroke="rgb(0, 0, 0)" stroke-linejoin="round" d=" M 1197.841, 809.044 1196.360, 806.947 1195.179, 804.666 1194.319, 802.247 1193.796, 799.733 1193.621, 797.171 1193.796, 794.609 1194.319, 792.094 1195.179, 789.675 1196.360, 787.395 1197.841, 785.297 1199.594, 783.420 1201.586, 781.799 1203.780, 780.465 1206.135, 779.442 1208.608, 778.749 1211.152, 778.400 1213.720, 778.400 1216.264, 778.749 1218.737, 779.442 1221.092, 780.465 1223.286, 781.799 1225.278, 783.420 " />
        </g>
    </g>
</svg>
