<?xml version='1.0' encoding='ascii'?>
<svg xmlns="http://www.w3.org/2000/svg" version="1.1" width="1920" height="1080">
    <g id="ViewLayer_LineSet" xmlns:inkscape="http://www.inkscape.org/namespaces/inkscape" inkscape:groupmode="lineset" inkscape:label="ViewLayer_LineSet">
        <g xmlns:inkscape="http://www.inkscape.org/namespaces/inkscape" inkscape:groupmode="layer" id="strokes" inkscape:label="strokes">
            <path fill="none" stroke-width="3.0" stroke-linecap="butt" stroke-opacity="1.0" stroke="rgb(0, 0, 0)" stroke-linejoin="round" d=" M 226.934, 573.828 226.979, 573.824 230.142, 573.522 233.307, 572.912 236.399, 572.004 239.391, 570.806 242.256, 569.329 244.967, 567.587 247.500, 565.595 249.833, 563.371 251.943, 560.935 253.813, 558.310 255.424, 555.519 256.763, 552.587 257.817, 549.541 258.577, 546.409 259.036, 543.219 259.189, 540.000 259.189, 530.000 259.189, 520.000 259.189, 510.000 259.189, 500.000 259.189, 490.000 259.189, 480.000 259.189, 470.000 259.189, 460.000 259.189, 450.000 259.189, 440.000 259.189, 430.000 259.189, 421.467 259.342, 418.247 259.801, 415.057 260.561, 411.925 261.615, 408.880 262.954, 405.948 264.565, 403.157 266.435, 400.532 268.545, 398.096 270.878, 395.872 273.411, 393.880 276.122, 392.137 278.987, 390.660 281.979, 389.463 285.071, 388.555 288.236, 387.945 291.444, 387.638 294.667, 387.638 297.876, 387.945 301.040, 388.555 304.133, 389.463 307.125, 390.660 309.989, 392.137 312.700, 393.880 315.234, 395.872 317.566, 398.096 319.677, 400.532 321.546, 403.157 323.158, 405.948 324.497, 408.880 325.551, 411.925 326.310, 415.057 326.769, 418.247 326.922, 421.467 326.922, 431.467 326.922, 441.467 326.922, 451.467 326.922, 461.467 326.922, 471.467 326.922, 481.467 326.922, 491.467 326.922, 501.467 326.922, 511.467 326.922, 521.467 326.922, 531.467 326.922, 540.000 326.763, 545.697 326.284, 551.376 325.487, 557.019 324.375, 562.608 322.952, 568.126 321.221, 573.556 319.189, 578.881 316.861, 584.083 314.245, 589.146 311.350, 594.054 308.183, 598.793 304.757, 603.347 301.080, 607.701 297.164, 611.842 293.023, 615.757 288.669, 619.434 284.115, 622.861 279.377, 626.027 274.468, 628.923 269.405, 631.538 264.203, 633.866 258.879, 635.899 253.449, 637.629 247.931, 639.053 242.341, 640.164 236.698, 640.961 231.019, 641.440 225.322, 641.600 219.626, 641.440 213.947, 640.961 208.304, 640.164 202.714, 639.053 197.196, 637.629 191.766, 635.899 186.442, 633.866 181.240, 631.538 176.177, 628.923 171.268, 626.027 166.529, 622.861 161.976, 619.434 157.622, 615.757 153.480, 611.842 149.565, 607.701 145.888, 603.347 142.461, 598.793 139.295, 594.054 136.400, 589.146 133.784, 584.083 131.456, 578.881 129.424, 573.556 127.693, 568.126 126.270, 562.608 125.158, 557.019 124.361, 551.376 123.882, 545.697 123.722, 540.000 123.722, 530.000 123.722, 520.000 123.722, 510.000 123.722, 500.000 123.722, 490.000 123.722, 480.000 123.722, 470.000 123.722, 460.000 123.722, 450.000 123.722, 440.000 123.722, 430.000 123.722, 421.467 123.876, 418.247 124.334, 415.057 125.094, 411.925 126.148, 408.880 127.487, 405.948 129.099, 403.157 130.968, 400.532 133.079, 398.096 135.411, 395.872 137.945, 393.880 140.656, 392.137 143.520, 390.660 146.512, 389.463 149.605, 388.555 152.769, 387.945 155.978, 387.638 159.201, 387.638 162.409, 387.945 162.510, 387.964 165.674, 388.574 168.766, 389.482 171.758, 390.679 174.622, 392.156 177.333, 393.898 179.866, 395.890 182.198, 398.114 184.309, 400.549 186.178, 403.174 187.789, 405.965 189.128, 408.896 190.182, 411.942 190.941, 415.073 191.400, 418.263 191.553, 421.482 191.553, 431.482 191.553, 441.482 191.553, 451.482 191.553, 461.482 191.553, 471.482 191.553, 481.482 191.553, 491.482 191.553, 501.482 191.553, 511.482 191.553, 521.482 191.553, 531.482 191.553, 540.000 191.707, 543.219 192.165, 546.409 192.925, 549.540 193.979, 552.585 195.318, 555.517 196.929, 558.307 198.798, 560.932 200.908, 563.368 203.241, 565.591 205.774, 567.583 208.485, 569.326 211.349, 570.802 214.340, 572.000 217.432, 572.908 220.597, 573.518 223.805, 573.824 226.979, 573.824 " />
            <path fill="none" stroke-width="3.0" stroke-linecap="butt" stroke-opacity="1.0" stroke="rgb(0, 0, 0)" stroke-linejoin="round" d=" M 236.698, 640.961 236.790, 640.948 242.432, 640.152 248.021, 639.040 253.539, 637.617 258.968, 635.886 264.291, 633.854 269.493, 631.527 274.555, 628.911 279.463, 626.016 284.201, 622.850 288.754, 619.424 293.108, 615.748 297.249, 611.833 301.163, 607.692 304.840, 603.339 308.266, 598.786 311.432, 594.048 314.327, 589.140 316.943, 584.077 319.270, 578.876 321.302, 573.552 323.033, 568.123 324.456, 562.605 325.568, 557.016 326.364, 551.374 326.843, 545.696 327.003, 540.000 327.003, 530.000 327.003, 520.000 327.003, 510.000 327.003, 500.000 327.003, 490.000 327.003, 480.000 327.003, 470.000 327.003, 460.000 327.003, 450.000 327.003, 440.000 327.003, 430.000 327.003, 421.482 326.850, 418.263 326.391, 415.073 325.631, 411.942 324.577, 408.896 323.239, 405.965 321.627, 403.174 319.758, 400.549 317.648, 398.114 315.316, 395.890 312.783, 393.898 310.072, 392.156 307.207, 390.679 304.216, 389.482 301.124, 388.574 301.040, 388.555 " />
            <path fill="none" stroke-width="3.0" stroke-linecap="butt" stroke-opacity="1.0" stroke="rgb(0, 0, 0)" stroke-linejoin="round" d=" M 162.409, 387.945 165.573, 388.555 168.666, 389.463 171.658, 390.660 174.522, 392.137 177.234, 393.880 179.767, 395.872 182.100, 398.096 184.210, 400.532 186.080, 403.157 187.691, 405.948 189.030, 408.880 190.084, 411.925 190.844, 415.057 191.302, 418.247 191.456, 421.467 191.456, 431.467 191.456, 441.467 191.456, 451.467 191.456, 461.467 191.456, 471.467 191.456, 481.467 191.456, 491.467 191.456, 501.467 191.456, 511.467 191.456, 521.467 191.456, 531.467 191.456, 540.000 191.609, 543.219 192.068, 546.409 192.828, 549.541 193.882, 552.587 195.221, 555.519 196.832, 558.310 198.701, 560.935 200.812, 563.371 203.145, 565.595 205.678, 567.587 208.389, 569.329 211.254, 570.806 214.246, 572.004 217.338, 572.912 220.503, 573.522 223.711, 573.828 226.934, 573.828 " />
            <path fill="none" stroke-width="3.0" stroke-linecap="butt" stroke-opacity="1.0" stroke="rgb(0, 0, 0)" stroke-linejoin="round" d=" M 460.778, 556.972 460.819, 556.972 464.001, 556.972 467.209, 557.278 470.373, 557.888 473.466, 558.796 476.458, 559.994 479.322, 561.471 482.034, 563.213 484.567, 565.205 486.900, 567.429 489.010, 569.865 490.880, 572.490 492.491, 575.281 493.830, 578.213 494.884, 581.259 495.644, 584.391 496.102, 587.581 496.256, 590.800 496.256, 600.800 496.256, 610.800 496.256, 620.800 496.256, 624.667 496.409, 627.886 496.868, 631.076 497.628, 634.208 498.682, 637.254 500.021, 640.185 501.632, 642.976 503.501, 645.602 505.612, 648.037 507.944, 650.261 510.478, 652.254 513.189, 653.996 516.054, 655.473 519.046, 656.671 522.138, 657.579 525.303, 658.189 528.511, 658.495 531.734, 658.495 534.942, 658.189 538.107, 657.579 538.160, 657.564 541.252, 656.656 544.244, 655.458 547.108, 653.982 549.819, 652.239 552.352, 650.247 554.684, 648.024 556.795, 645.588 558.664, 642.963 560.275, 640.173 561.614, 637.241 562.668, 634.196 563.427, 631.064 563.886, 627.875 564.039, 624.656 564.039, 614.656 564.039, 604.656 564.039, 594.656 564.039, 590.794 563.880, 585.098 563.401, 579.419 562.604, 573.777 561.492, 568.188 560.069, 562.671 558.339, 557.241 556.307, 551.918 553.979, 546.717 551.364, 541.654 548.469, 536.746 545.303, 532.008 541.876, 527.455 538.200, 523.101 534.285, 518.961 530.145, 515.046 525.791, 511.370 521.238, 507.943 516.500, 504.777 511.592, 501.882 506.529, 499.267 501.328, 496.939 496.004, 494.907 490.575, 493.177 485.058, 491.753 479.469, 490.642 473.826, 489.845 473.765, 489.839 468.086, 489.360 462.389, 489.200 456.692, 489.360 451.014, 489.839 445.370, 490.635 439.781, 491.747 434.263, 493.171 428.833, 494.901 423.509, 496.934 418.307, 499.262 413.243, 501.877 408.335, 504.773 403.596, 507.939 399.043, 511.366 394.688, 515.043 390.547, 518.958 386.632, 523.099 382.955, 527.453 379.528, 532.007 376.362, 536.746 373.466, 541.654 370.851, 546.717 368.523, 551.919 366.491, 557.244 364.760, 562.674 363.336, 568.192 362.225, 573.781 361.428, 579.424 360.949, 585.103 360.789, 590.800 360.789, 600.800 360.789, 610.800 360.789, 620.800 360.789, 624.667 360.943, 627.886 361.401, 631.076 362.161, 634.208 363.215, 637.254 364.554, 640.185 366.165, 642.976 368.035, 645.602 370.145, 648.037 372.478, 650.261 375.011, 652.254 377.722, 653.996 380.587, 655.473 383.579, 656.671 386.671, 657.579 389.836, 658.189 393.044, 658.495 396.267, 658.495 399.476, 658.189 402.640, 657.579 402.711, 657.564 405.803, 656.656 408.795, 655.458 411.659, 653.982 414.370, 652.239 416.903, 650.247 419.235, 648.024 421.345, 645.588 423.214, 642.963 424.826, 640.173 426.164, 637.241 427.218, 634.196 427.978, 631.064 428.437, 627.875 428.590, 624.656 428.590, 614.656 428.590, 604.656 428.590, 594.656 428.590, 590.794 428.743, 587.575 429.202, 584.385 429.962, 581.253 431.016, 578.208 432.354, 575.277 433.965, 572.486 435.835, 569.861 437.945, 567.426 440.277, 565.202 442.810, 563.210 445.521, 561.468 448.385, 559.991 451.377, 558.794 454.469, 557.886 457.633, 557.276 460.819, 556.972 " />
            <path fill="none" stroke-width="3.0" stroke-linecap="butt" stroke-opacity="1.0" stroke="rgb(0, 0, 0)" stroke-linejoin="round" d=" M 460.778, 556.972 457.569, 557.278 454.405, 557.888 451.312, 558.796 448.320, 559.994 445.456, 561.471 442.745, 563.213 440.211, 565.205 437.879, 567.429 435.768, 569.865 433.899, 572.490 432.287, 575.281 430.948, 578.213 429.894, 581.259 429.134, 584.391 428.676, 587.581 428.522, 590.800 428.522, 600.800 428.522, 610.800 428.522, 620.800 428.522, 624.667 428.369, 627.886 427.910, 631.076 427.151, 634.208 426.097, 637.254 424.758, 640.185 423.146, 642.976 421.277, 645.602 419.166, 648.037 416.834, 650.261 414.300, 652.254 411.589, 653.996 408.725, 655.473 405.733, 656.671 402.640, 657.579 " />
            <path fill="none" stroke-width="3.0" stroke-linecap="butt" stroke-opacity="1.0" stroke="rgb(0, 0, 0)" stroke-linejoin="round" d=" M 473.765, 489.839 479.408, 490.635 484.997, 491.747 490.516, 493.171 495.945, 494.901 501.270, 496.934 506.472, 499.262 511.535, 501.877 516.444, 504.773 521.182, 507.939 525.736, 511.366 530.090, 515.043 534.231, 518.958 538.146, 523.099 541.823, 527.453 545.250, 532.007 548.416, 536.746 551.312, 541.654 553.928, 546.717 556.255, 551.919 558.288, 557.244 560.018, 562.674 561.442, 568.192 562.554, 573.781 563.350, 579.424 563.829, 585.103 563.989, 590.800 563.989, 600.800 563.989, 610.800 563.989, 620.800 563.989, 624.667 563.836, 627.886 563.377, 631.076 562.617, 634.208 561.563, 637.254 560.224, 640.185 558.613, 642.976 556.743, 645.602 554.633, 648.037 552.300, 650.261 549.767, 652.254 547.056, 653.996 544.191, 655.473 541.199, 656.671 538.107, 657.579 " />
            <path fill="none" stroke-width="3.0" stroke-linecap="butt" stroke-opacity="1.0" stroke="rgb(0, 0, 0)" stroke-linejoin="round" d=" M 597.856, 526.453 597.856, 536.453 597.856, 546.453 597.856, 556.453 597.856, 566.453 597.856, 576.453 597.856, 586.453 597.856, 596.453 597.856, 606.453 597.856, 616.453 597.856, 624.667 598.009, 627.886 598.468, 631.076 599.228, 634.208 600.282, 637.254 601.621, 640.185 603.232, 642.976 605.101, 645.602 607.212, 648.037 609.544, 650.261 612.078, 652.254 614.789, 653.996 617.654, 655.473 620.646, 656.671 623.738, 657.579 626.903, 658.189 630.111, 658.495 633.334, 658.495 636.542, 658.189 639.707, 657.579 642.799, 656.671 642.839, 656.656 645.831, 655.458 648.695, 653.982 651.406, 652.239 653.939, 650.247 656.271, 648.024 658.382, 645.588 660.251, 642.963 661.862, 640.173 663.201, 637.241 664.255, 634.196 665.015, 631.064 665.473, 627.875 665.627, 624.656 665.627, 614.656 665.627, 604.656 665.627, 594.656 665.627, 584.656 665.627, 574.656 665.627, 564.656 665.627, 554.656 665.627, 544.656 665.627, 534.656 665.627, 526.455 665.473, 523.236 665.015, 520.047 664.255, 516.915 663.201, 513.870 661.862, 510.938 660.251, 508.148 658.382, 505.523 656.271, 503.087 653.939, 500.864 651.406, 498.872 648.695, 497.129 645.831, 495.653 642.839, 494.455 639.747, 493.547 636.583, 492.937 636.542, 492.931 633.334, 492.625 630.111, 492.625 626.903, 492.931 623.738, 493.541 620.646, 494.449 617.654, 495.647 614.789, 497.124 612.078, 498.866 609.544, 500.859 607.212, 503.083 605.101, 505.518 603.232, 508.144 601.621, 510.935 600.282, 513.866 599.228, 516.912 598.468, 520.044 598.009, 523.234 597.856, 526.453 " />
            <path fill="none" stroke-width="3.0" stroke-linecap="butt" stroke-opacity="1.0" stroke="rgb(0, 0, 0)" stroke-linejoin="round" d=" M 636.542, 492.931 639.707, 493.541 642.799, 494.449 645.791, 495.647 648.656, 497.124 651.367, 498.866 653.900, 500.859 656.233, 503.083 658.343, 505.518 660.213, 508.144 661.824, 510.935 663.163, 513.866 664.217, 516.912 664.977, 520.044 665.436, 523.234 665.589, 526.453 665.589, 536.453 665.589, 546.453 665.589, 556.453 665.589, 566.453 665.589, 576.453 665.589, 586.453 665.589, 596.453 665.589, 606.453 665.589, 616.453 665.589, 624.667 665.436, 627.886 664.977, 631.076 664.217, 634.208 663.163, 637.254 661.824, 640.185 660.213, 642.976 658.343, 645.602 656.233, 648.037 653.900, 650.261 651.367, 652.254 648.656, 653.996 645.791, 655.473 642.799, 656.671 " />
            <path fill="none" stroke-width="3.0" stroke-linecap="butt" stroke-opacity="1.0" stroke="rgb(0, 0, 0)" stroke-linejoin="round" d=" M 597.856, 421.467 598.014, 424.735 598.487, 427.973 599.270, 431.151 600.356, 434.238 601.735, 437.205 603.394, 440.026 605.317, 442.673 607.487, 445.123 609.884, 447.352 612.484, 449.338 615.264, 451.065 618.197, 452.515 621.257, 453.676 624.415, 454.535 624.457, 454.546 627.682, 455.097 630.946, 455.334 634.217, 455.255 637.465, 454.861 640.660, 454.155 643.772, 453.144 646.772, 451.837 649.631, 450.247 652.324, 448.388 654.825, 446.278 657.110, 443.937 659.159, 441.385 660.952, 438.649 662.473, 435.751 663.707, 432.721 664.643, 429.586 665.271, 426.374 665.587, 423.118 665.587, 419.846 665.271, 416.589 664.643, 413.378 663.707, 410.243 662.473, 407.212 660.952, 404.315 659.159, 401.578 657.110, 399.027 654.825, 396.685 652.324, 394.575 649.631, 392.717 646.772, 391.127 646.732, 391.108 643.732, 389.801 640.619, 388.790 637.424, 388.083 634.176, 387.689 630.904, 387.610 627.640, 387.847 624.415, 388.398 621.257, 389.258 618.197, 390.418 615.264, 391.868 612.484, 393.595 609.884, 395.582 607.487, 397.810 605.317, 400.260 603.394, 402.907 601.735, 405.728 600.356, 408.696 599.270, 411.783 598.487, 414.960 598.014, 418.198 597.856, 421.467 " />
            <path fill="none" stroke-width="3.0" stroke-linecap="butt" stroke-opacity="1.0" stroke="rgb(0, 0, 0)" stroke-linejoin="round" d=" M 646.732, 391.108 649.592, 392.698 652.285, 394.557 654.786, 396.667 657.072, 399.009 659.121, 401.560 660.914, 404.298 662.435, 407.195 663.669, 410.226 664.605, 413.362 665.234, 416.573 665.550, 419.830 665.550, 423.103 665.234, 426.360 664.605, 429.571 663.669, 432.707 662.435, 435.738 660.914, 438.636 659.121, 441.373 657.072, 443.924 654.786, 446.266 652.285, 448.376 649.592, 450.235 646.732, 451.826 643.732, 453.133 640.619, 454.144 637.424, 454.850 634.176, 455.244 630.904, 455.323 627.640, 455.086 624.415, 454.535 " />
            <path fill="none" stroke-width="3.0" stroke-linecap="butt" stroke-opacity="1.0" stroke="rgb(0, 0, 0)" stroke-linejoin="round" d=" M 821.283, 448.877 821.299, 448.888 822.958, 450.000 824.449, 451.358 825.721, 452.924 828.034, 455.258 830.562, 457.358 833.281, 459.202 833.297, 459.212 836.183, 460.784 839.206, 462.070 842.341, 463.055 845.556, 463.733 848.821, 464.096 852.107, 464.140 855.381, 463.866 858.613, 463.276 861.773, 462.376 864.831, 461.173 867.757, 459.680 870.526, 457.910 873.109, 455.881 875.484, 453.610 877.628, 451.120 879.520, 448.434 881.143, 445.577 882.481, 442.576 883.523, 439.460 884.257, 436.258 884.678, 432.999 884.780, 429.715 884.565, 426.437 884.032, 423.194 883.188, 420.019 882.039, 416.941 880.598, 413.988 878.878, 411.189 878.867, 411.172 876.884, 408.553 873.497, 404.753 869.878, 401.173 866.043, 397.827 862.005, 394.728 857.782, 391.888 853.388, 389.318 848.842, 387.028 844.162, 385.028 839.366, 383.324 834.472, 381.925 829.500, 380.835 824.470, 380.058 819.401, 379.599 814.313, 379.457 809.226, 379.635 804.161, 380.131 799.136, 380.943 794.172, 382.069 789.288, 383.503 784.504, 385.240 779.838, 387.274 775.309, 389.596 770.934, 392.197 766.731, 395.068 762.715, 398.196 758.904, 401.569 755.311, 405.174 751.951, 408.998 748.838, 413.024 745.983, 417.238 743.397, 421.622 741.091, 426.160 739.074, 430.833 737.354, 435.623 735.937, 440.512 734.829, 445.480 734.034, 450.507 733.556, 455.575 733.397, 460.662 733.397, 470.662 733.397, 480.662 733.397, 490.662 733.397, 492.587 725.275, 492.587 722.056, 492.740 718.866, 493.199 715.734, 493.958 712.688, 495.013 709.757, 496.351 706.966, 497.963 704.340, 499.832 701.905, 501.943 699.680, 504.275 697.688, 506.809 695.946, 509.520 694.469, 512.385 693.271, 515.377 692.363, 518.469 691.753, 521.634 691.447, 524.842 691.447, 528.065 691.753, 531.273 692.363, 534.438 693.271, 537.530 694.469, 540.522 695.946, 543.387 697.688, 546.098 699.680, 548.631 701.905, 550.964 704.340, 553.074 706.966, 554.944 709.757, 556.555 712.688, 557.894 715.734, 558.948 718.866, 559.708 722.056, 560.167 725.221, 560.317 725.275, 560.320 " />
            <path fill="none" stroke-width="3.0" stroke-linecap="butt" stroke-opacity="1.0" stroke="rgb(0, 0, 0)" stroke-linejoin="round" d=" M 719.776, 560.320 725.275, 560.320 " />
            <path fill="none" stroke-width="3.0" stroke-linecap="butt" stroke-opacity="1.0" stroke="rgb(0, 0, 0)" stroke-linejoin="round" d=" M 725.221, 560.317 719.806, 560.317 719.776, 560.320 721.704, 560.458 723.592, 560.869 725.403, 561.544 727.100, 562.470 728.647, 563.629 730.014, 564.995 731.172, 566.543 732.098, 568.239 732.774, 570.050 733.185, 571.939 733.322, 573.867 733.322, 583.867 733.322, 593.867 733.322, 603.867 733.322, 613.867 733.322, 623.867 733.322, 624.667 733.476, 627.886 733.934, 631.076 734.694, 634.208 735.748, 637.254 737.087, 640.185 738.699, 642.976 740.568, 645.602 742.679, 648.037 745.011, 650.261 747.544, 652.254 750.256, 653.996 753.120, 655.473 756.112, 656.671 759.205, 657.579 762.369, 658.189 765.578, 658.495 768.801, 658.495 772.009, 658.189 775.173, 657.579 778.266, 656.671 781.258, 655.473 784.122, 653.996 786.834, 652.254 786.856, 652.239 789.389, 650.247 791.721, 648.024 793.831, 645.588 795.700, 642.963 797.312, 640.173 798.650, 637.241 799.704, 634.196 800.464, 631.064 800.923, 627.875 801.076, 624.656 801.076, 614.656 801.076, 604.656 801.076, 594.656 801.076, 584.656 801.076, 574.656 801.076, 573.862 801.214, 571.935 801.625, 570.046 802.300, 568.236 803.226, 566.539 804.384, 564.992 805.751, 563.626 807.298, 562.468 808.994, 561.541 810.805, 560.866 812.685, 560.457 " />
            <path fill="none" stroke-width="3.0" stroke-linecap="butt" stroke-opacity="1.0" stroke="rgb(0, 0, 0)" stroke-linejoin="round" d=" M 801.056, 492.587 801.076, 492.587 811.076, 492.587 816.548, 492.587 819.767, 492.740 822.957, 493.199 826.089, 493.958 826.107, 493.964 829.152, 495.018 832.083, 496.357 834.874, 497.968 837.499, 499.837 839.934, 501.948 842.158, 504.280 844.150, 506.813 845.892, 509.524 847.369, 512.388 848.566, 515.380 849.474, 518.472 850.084, 521.636 850.390, 524.844 850.390, 528.066 850.084, 531.274 849.474, 534.438 848.566, 537.530 847.369, 540.522 845.892, 543.386 844.150, 546.097 842.158, 548.630 839.934, 550.962 837.499, 553.073 834.874, 554.942 832.083, 556.553 829.152, 557.892 826.107, 558.946 822.975, 559.706 822.957, 559.708 819.767, 560.167 816.548, 560.320 814.602, 560.320 812.685, 560.457 812.675, 560.458 810.786, 560.869 808.975, 561.544 807.279, 562.470 805.731, 563.629 804.365, 564.995 803.206, 566.543 802.280, 568.239 801.604, 570.050 801.194, 571.939 801.056, 573.867 801.056, 583.867 801.056, 593.867 801.056, 603.867 801.056, 613.867 801.056, 623.867 801.056, 624.667 800.902, 627.886 800.444, 631.076 799.684, 634.208 798.630, 637.254 797.291, 640.185 795.680, 642.976 793.810, 645.602 791.700, 648.037 789.367, 650.261 786.834, 652.254 " />
            <path fill="none" stroke-width="3.0" stroke-linecap="butt" stroke-opacity="1.0" stroke="rgb(0, 0, 0)" stroke-linejoin="round" d=" M 826.089, 493.958 829.135, 495.013 832.067, 496.351 834.858, 497.963 837.483, 499.832 839.919, 501.943 842.143, 504.275 844.135, 506.809 845.878, 509.520 847.354, 512.385 848.552, 515.377 849.460, 518.469 850.070, 521.634 850.376, 524.842 850.376, 528.065 850.070, 531.273 849.460, 534.438 848.552, 537.530 847.354, 540.522 845.878, 543.387 844.135, 546.098 842.143, 548.631 839.919, 550.964 837.483, 553.074 834.858, 554.944 832.067, 556.555 829.135, 557.894 826.090, 558.948 822.957, 559.708 " />
            <path fill="none" stroke-width="3.0" stroke-linecap="butt" stroke-opacity="1.0" stroke="rgb(0, 0, 0)" stroke-linejoin="round" d=" M 821.283, 448.877 819.459, 448.016 817.527, 447.435 815.531, 447.147 813.514, 447.159 811.521, 447.471 809.596, 448.074 807.783, 448.957 806.120, 450.100 804.646, 451.476 803.392, 453.056 802.387, 454.805 801.653, 456.684 801.206, 458.651 801.056, 460.662 801.056, 470.662 801.056, 480.662 801.056, 490.662 801.056, 492.587 " />
            <path fill="none" stroke-width="3.0" stroke-linecap="butt" stroke-opacity="1.0" stroke="rgb(0, 0, 0)" stroke-linejoin="round" d=" M 801.076, 492.587 801.076, 482.587 801.076, 472.587 801.076, 462.587 801.076, 460.672 801.226, 458.661 801.673, 456.694 802.407, 454.816 803.412, 453.067 804.666, 451.487 806.140, 450.111 807.802, 448.969 809.615, 448.086 811.540, 447.482 813.532, 447.171 815.549, 447.159 817.545, 447.447 819.477, 448.027 821.299, 448.888 " />
            <path fill="none" stroke-width="3.0" stroke-linecap="butt" stroke-opacity="1.0" stroke="rgb(0, 0, 0)" stroke-linejoin="round" d=" M 878.867, 411.172 880.588, 413.972 882.029, 416.925 883.178, 420.004 884.022, 423.180 884.555, 426.422 884.771, 429.701 884.668, 432.986 884.247, 436.245 883.513, 439.447 882.471, 442.564 881.133, 445.565 879.510, 448.422 877.617, 451.109 875.473, 453.599 873.098, 455.870 870.514, 457.900 867.746, 459.670 864.818, 461.163 861.760, 462.366 858.600, 463.267 855.368, 463.857 852.093, 464.131 848.807, 464.086 845.541, 463.723 842.326, 463.046 839.191, 462.060 836.167, 460.774 833.281, 459.202 " />
            <path fill="none" stroke-width="3.0" stroke-linecap="butt" stroke-opacity="1.0" stroke="rgb(0, 0, 0)" stroke-linejoin="round" d=" M 1018.287, 671.306 1018.985, 673.138 1019.412, 675.062 1019.556, 677.029 1019.556, 687.029 1019.556, 697.029 1019.556, 707.029 1019.556, 717.029 1019.556, 727.029 1019.556, 733.015 1019.403, 736.234 1018.944, 739.424 1018.184, 742.556 1017.130, 745.601 1015.792, 748.532 1014.180, 751.323 1012.311, 753.948 1010.201, 756.383 1007.869, 758.607 1005.336, 760.599 1002.625, 762.341 999.760, 763.818 996.769, 765.015 993.677, 765.923 990.513, 766.533 987.305, 766.839 984.082, 766.839 980.874, 766.533 977.710, 765.923 974.618, 765.015 971.627, 763.818 968.762, 762.341 966.051, 760.599 963.518, 758.607 961.186, 756.383 959.076, 753.948 957.207, 751.323 955.595, 748.532 954.257, 745.601 953.203, 742.556 952.443, 739.424 951.984, 736.234 951.831, 733.015 951.678, 729.797 951.219, 726.607 950.460, 723.475 949.406, 720.430 948.067, 717.499 946.456, 714.708 944.586, 712.083 942.476, 709.648 940.144, 707.424 937.611, 705.432 934.900, 703.690 932.036, 702.213 929.044, 701.016 925.952, 700.108 922.788, 699.498 919.580, 699.191 916.358, 699.191 913.150, 699.498 909.985, 700.108 906.894, 701.016 903.902, 702.213 901.038, 703.690 898.327, 705.432 895.794, 707.424 893.461, 709.648 891.351, 712.083 889.482, 714.708 887.871, 717.499 886.532, 720.430 886.523, 720.453 885.469, 723.499 884.709, 726.631 884.250, 729.821 884.097, 733.040 884.257, 738.737 884.736, 744.416 885.532, 750.059 886.644, 755.648 888.068, 761.166 889.798, 766.596 891.831, 771.921 894.158, 777.123 896.774, 782.186 899.670, 787.094 902.836, 791.833 906.263, 796.387 909.940, 800.741 913.855, 804.882 917.996, 808.797 922.350, 812.474 926.904, 815.901 931.642, 819.067 936.551, 821.963 941.614, 824.578 946.816, 826.906 952.140, 828.939 957.570, 830.669 963.089, 832.093 968.678, 833.204 974.321, 834.001 980.000, 834.480 985.697, 834.640 991.394, 834.480 997.072, 834.001 1002.715, 833.204 1008.305, 832.093 1013.823, 830.669 1019.253, 828.939 1024.577, 826.906 1029.779, 824.578 1034.843, 821.963 1039.751, 819.067 1044.490, 815.901 1049.043, 812.474 1053.398, 808.797 1057.539, 804.882 1061.454, 800.741 1065.131, 796.387 1068.558, 791.833 1071.724, 787.094 1074.620, 782.186 1077.235, 777.123 1079.563, 771.921 1081.595, 766.596 1083.326, 761.166 1084.750, 755.648 1085.861, 750.059 1086.658, 744.416 1087.137, 738.737 1087.297, 733.040 1087.297, 723.040 1087.297, 713.040 1087.297, 703.040 1087.297, 693.040 1087.297, 683.040 1087.297, 673.040 1087.297, 663.040 1087.297, 653.040 1087.297, 643.040 1087.297, 633.040 1087.297, 623.040 1087.297, 613.040 1087.297, 603.040 1087.297, 593.040 1087.297, 583.040 1087.297, 573.040 1087.297, 563.040 1087.297, 553.040 1087.297, 543.040 1087.297, 533.040 1087.297, 529.840 1087.143, 526.621 1086.685, 523.431 1085.925, 520.299 1084.871, 517.253 1083.532, 514.321 1081.921, 511.530 1080.051, 508.905 1077.941, 506.469 1075.608, 504.245 1073.075, 502.253 1070.364, 500.511 1067.499, 499.034 1064.507, 497.836 1061.415, 496.928 1058.250, 496.318 1055.042, 496.012 1051.819, 496.012 1048.610, 496.318 1045.446, 496.928 1042.354, 497.836 1039.361, 499.034 1036.497, 500.511 1036.487, 500.516 1033.776, 502.258 1031.243, 504.250 1028.911, 506.474 1026.801, 508.909 1024.931, 511.534 1023.320, 514.325 1021.982, 517.256 1020.928, 520.301 1020.168, 523.433 1019.709, 526.622 1019.556, 529.841 1019.556, 539.841 1019.556, 549.841 1019.556, 559.841 1019.556, 563.704 1019.403, 566.922 1018.944, 570.112 1018.184, 573.244 1017.130, 576.289 1015.792, 579.220 1014.180, 582.011 1012.311, 584.636 1010.201, 587.071 1007.869, 589.295 1005.336, 591.287 1002.625, 593.029 999.760, 594.506 996.769, 595.704 993.677, 596.611 990.513, 597.221 987.305, 597.528 984.082, 597.528 980.874, 597.221 977.710, 596.611 974.618, 595.704 971.627, 594.506 968.762, 593.029 966.051, 591.287 963.518, 589.295 961.186, 587.071 959.076, 584.636 957.207, 582.011 955.595, 579.220 954.257, 576.289 953.203, 573.244 952.443, 570.112 951.984, 566.922 951.831, 563.704 951.831, 553.704 951.831, 543.704 951.831, 533.704 951.831, 529.841 951.678, 526.622 951.219, 523.433 950.460, 520.301 949.406, 517.256 948.067, 514.325 948.065, 514.321 946.454, 511.530 944.584, 508.905 942.474, 506.469 940.141, 504.245 937.608, 502.253 934.897, 500.511 932.032, 499.034 929.040, 497.836 925.948, 496.928 922.783, 496.318 919.575, 496.012 916.352, 496.012 913.144, 496.318 909.979, 496.928 906.887, 497.836 903.895, 499.034 901.030, 500.511 898.319, 502.253 895.786, 504.245 893.453, 506.469 891.342, 508.905 889.473, 511.530 887.862, 514.321 886.523, 517.253 885.469, 520.299 884.709, 523.431 884.250, 526.621 884.097, 529.840 884.097, 539.840 884.097, 549.840 884.097, 559.840 884.097, 563.707 884.258, 569.433 884.742, 575.142 885.547, 580.814 886.671, 586.431 888.109, 591.976 889.857, 597.432 891.911, 602.780 894.262, 608.004 896.904, 613.087 899.829, 618.013 903.026, 622.767 906.486, 627.333 910.198, 631.696 914.151, 635.843 918.330, 639.761 922.724, 643.437 927.318, 646.860 932.098, 650.018 937.048, 652.902 942.152, 655.502 947.396, 657.811 952.760, 659.820 958.230, 661.524 963.787, 662.916 969.414, 663.993 975.092, 664.752 980.804, 665.189 986.532, 665.303 992.257, 665.095 997.961, 664.564 1003.626, 663.712 1005.587, 663.506 1007.557, 663.587 1009.495, 663.954 1011.359, 664.597 1013.109, 665.505 1014.710, 666.656 1016.126, 668.028 1017.328, 669.591 1018.287, 671.306 1018.290, 671.312 " />
            <path fill="none" stroke-width="3.0" stroke-linecap="butt" stroke-opacity="1.0" stroke="rgb(0, 0, 0)" stroke-linejoin="round" d=" M 886.523, 720.453 887.862, 717.521 889.473, 714.730 891.342, 712.105 893.453, 709.669 895.786, 707.445 898.319, 705.453 901.030, 703.711 903.895, 702.234 906.887, 701.036 909.979, 700.128 913.144, 699.518 916.352, 699.212 919.575, 699.212 922.783, 699.518 925.948, 700.128 929.040, 701.036 932.032, 702.234 934.897, 703.711 937.608, 705.453 940.141, 707.445 942.474, 709.669 944.584, 712.105 946.454, 714.730 948.065, 717.521 949.404, 720.453 950.458, 723.499 951.218, 726.631 951.677, 729.821 951.830, 733.040 951.984, 736.259 952.442, 739.449 953.202, 742.581 954.256, 745.627 955.595, 748.559 957.206, 751.350 959.076, 753.975 961.186, 756.411 963.519, 758.635 966.052, 760.627 968.763, 762.369 971.628, 763.846 974.620, 765.044 977.712, 765.952 980.877, 766.562 984.085, 766.868 987.308, 766.868 990.517, 766.562 993.681, 765.952 996.773, 765.044 999.766, 763.846 1002.630, 762.369 1005.341, 760.627 1007.875, 758.635 1010.207, 756.411 1012.318, 753.975 1014.187, 751.350 1015.799, 748.559 1017.138, 745.627 1018.192, 742.581 1018.951, 739.449 1019.410, 736.259 1019.563, 733.040 1019.563, 723.040 1019.563, 713.040 1019.563, 703.040 1019.563, 693.040 1019.563, 683.040 1019.563, 677.046 1019.420, 675.080 1018.993, 673.155 1018.290, 671.312 " />
            <path fill="none" stroke-width="3.0" stroke-linecap="butt" stroke-opacity="1.0" stroke="rgb(0, 0, 0)" stroke-linejoin="round" d=" M 1036.497, 500.511 1033.786, 502.253 1031.252, 504.245 1028.920, 506.469 1026.809, 508.905 1024.940, 511.530 1023.328, 514.321 1021.989, 517.253 1020.935, 520.299 1020.175, 523.431 1019.717, 526.621 1019.563, 529.840 1019.563, 539.840 1019.563, 549.840 1019.563, 559.840 1019.563, 563.707 1019.410, 566.926 1018.951, 570.116 1018.192, 573.248 1017.138, 576.294 1015.799, 579.225 1014.187, 582.016 1012.318, 584.642 1010.207, 587.077 1007.875, 589.301 1005.341, 591.294 1002.630, 593.036 999.766, 594.513 996.773, 595.711 993.681, 596.619 990.517, 597.229 987.308, 597.535 984.085, 597.535 980.877, 597.229 977.712, 596.619 974.620, 595.711 971.628, 594.513 968.763, 593.036 966.052, 591.294 963.519, 589.301 961.186, 587.077 959.076, 584.642 957.206, 582.016 955.595, 579.225 954.256, 576.294 953.202, 573.248 952.442, 570.116 951.984, 566.926 951.830, 563.707 951.830, 553.707 951.830, 543.707 951.830, 533.707 951.830, 529.840 951.677, 526.621 951.218, 523.431 950.458, 520.299 949.404, 517.253 948.065, 514.321 " />
            <path fill="none" stroke-width="3.0" stroke-linecap="butt" stroke-opacity="1.0" stroke="rgb(0, 0, 0)" stroke-linejoin="round" d=" M 1289.118, 707.841 1291.074, 709.031 1292.867, 710.489 1294.444, 712.178 1295.777, 714.066 1296.840, 716.118 1297.614, 718.295 1298.084, 720.557 1298.241, 722.863 1298.241, 732.863 1298.241, 742.863 1298.241, 752.863 1298.241, 762.863 1298.241, 766.884 1298.400, 769.813 1298.875, 772.708 1299.660, 775.534 1300.745, 778.259 1302.119, 780.850 1303.765, 783.278 1305.664, 785.514 1307.794, 787.531 1310.129, 789.306 1310.173, 789.338 1312.687, 790.850 1315.350, 792.082 1318.130, 793.019 1320.995, 793.649 1323.911, 793.966 1326.845, 793.966 1329.761, 793.649 1332.626, 793.019 1335.406, 792.082 1338.069, 790.850 1340.582, 789.338 1342.918, 787.562 1345.047, 785.545 1346.947, 783.309 1348.593, 780.881 1349.967, 778.289 1351.053, 775.564 1351.838, 772.737 1352.312, 769.842 1352.471, 766.913 1352.471, 756.913 1352.471, 746.913 1352.471, 736.913 1352.471, 726.913 1352.471, 716.913 1352.471, 706.913 1352.471, 705.953 1352.320, 701.903 1351.866, 697.877 1351.113, 693.895 1350.064, 689.981 1348.725, 686.156 1347.105, 682.442 1345.211, 678.859 1343.056, 675.428 1340.649, 672.168 1338.006, 669.097 1335.141, 666.231 1332.069, 663.588 1328.809, 661.182 1325.378, 659.026 1321.795, 657.132 1318.081, 655.512 1314.256, 654.174 1314.211, 654.159 1310.298, 653.110 1306.317, 652.357 1302.290, 651.903 1298.241, 651.752 1288.241, 651.752 1281.310, 651.752 1277.926, 651.913 1274.573, 652.396 1271.281, 653.196 1268.080, 654.305 1265.000, 655.714 1262.067, 657.410 1259.309, 659.377 1256.750, 661.598 1254.415, 664.052 1252.324, 666.717 1250.496, 669.569 1249.307, 671.335 1247.885, 672.919 1246.255, 674.288 1244.451, 675.417 1242.507, 676.284 1240.461, 676.871 1238.354, 677.168 1236.225, 677.168 1234.117, 676.871 1232.071, 676.284 1230.151, 675.428 " />
            <path fill="none" stroke-width="3.0" stroke-linecap="butt" stroke-opacity="1.0" stroke="rgb(0, 0, 0)" stroke-linejoin="round" d=" M 1310.173, 789.338 1307.838, 787.562 1305.708, 785.545 1303.809, 783.309 1302.163, 780.881 1300.789, 778.289 1299.703, 775.564 1298.918, 772.737 1298.443, 769.842 1298.284, 766.913 1298.284, 756.913 1298.284, 746.913 1298.284, 736.913 1298.284, 726.913 1298.284, 722.886 1298.127, 720.580 1297.656, 718.318 1296.883, 716.140 1295.819, 714.088 1294.487, 712.200 1292.909, 710.511 1291.116, 709.052 1289.142, 707.851 1289.118, 707.841 1287.022, 706.931 1284.796, 706.307 1282.507, 705.992 1280.196, 705.992 1277.906, 706.307 1275.681, 706.931 1273.561, 707.851 1271.586, 709.052 1269.793, 710.511 1268.216, 712.200 1266.883, 714.088 1265.820, 716.140 1265.046, 718.318 1264.576, 720.580 1264.418, 722.886 1264.418, 732.886 1264.418, 742.886 1264.418, 752.886 1264.418, 762.886 1264.418, 766.913 1264.259, 769.842 1263.784, 772.737 1263.000, 775.564 1261.914, 778.289 1260.540, 780.881 1258.893, 783.309 1256.994, 785.545 1254.864, 787.562 1252.529, 789.338 1250.015, 790.850 1247.353, 792.082 1244.573, 793.019 1241.708, 793.649 1238.791, 793.966 1235.858, 793.966 1232.941, 793.649 1230.076, 793.019 1227.296, 792.082 1224.634, 790.850 1222.120, 789.338 1219.785, 787.562 1217.655, 785.545 1217.622, 785.514 1215.723, 783.278 1214.077, 780.850 1212.703, 778.259 1211.617, 775.534 1210.833, 772.708 1210.358, 769.813 1210.199, 766.884 1210.199, 756.884 1210.199, 746.884 1210.199, 736.884 1210.199, 726.884 1210.199, 722.863 1210.042, 720.557 1209.572, 718.295 1208.798, 716.118 1207.734, 714.066 1206.402, 712.178 1204.825, 710.489 1203.045, 709.041 " />
            <path fill="none" stroke-width="3.0" stroke-linecap="butt" stroke-opacity="1.0" stroke="rgb(0, 0, 0)" stroke-linejoin="round" d=" M 1203.063, 709.052 1203.045, 709.041 1201.088, 707.851 1198.969, 706.931 1196.743, 706.307 1194.453, 705.992 1192.142, 705.992 1189.853, 706.307 1187.627, 706.931 1185.507, 707.851 1183.533, 709.052 1181.740, 710.511 1180.162, 712.200 1178.830, 714.088 1177.766, 716.140 1176.992, 718.318 1176.522, 720.580 1176.365, 722.886 1176.365, 732.886 1176.365, 742.886 1176.365, 752.886 1176.365, 762.886 1176.365, 766.913 1176.206, 769.842 1175.731, 772.737 1174.946, 775.564 1173.860, 778.289 1172.486, 780.881 1170.840, 783.309 1168.941, 785.545 1166.811, 787.562 1164.476, 789.338 1161.962, 790.850 1159.299, 792.082 1156.519, 793.019 1153.654, 793.649 1150.738, 793.966 1147.804, 793.966 1144.888, 793.649 1142.023, 793.019 1139.243, 792.082 1136.580, 790.850 1134.067, 789.338 1131.731, 787.562 1129.602, 785.545 1127.702, 783.309 1127.681, 783.278 1126.035, 780.850 1124.661, 778.259 1123.575, 775.534 1122.791, 772.708 1122.316, 769.813 1122.157, 766.884 1122.157, 756.884 1122.157, 746.884 1122.157, 736.884 1122.157, 726.884 1122.157, 716.884 1122.157, 706.884 1122.157, 705.932 1122.309, 701.883 1122.762, 697.857 1123.516, 693.876 1124.564, 689.962 1125.903, 686.138 1127.523, 682.424 1129.416, 678.842 1131.572, 675.411 1133.978, 672.151 1136.620, 669.080 1139.485, 666.215 1142.557, 663.572 1145.817, 661.166 1149.247, 659.011 1152.829, 657.117 1156.543, 655.497 1160.367, 654.159 1164.281, 653.110 1168.262, 652.357 1172.288, 651.903 1176.337, 651.752 1186.337, 651.752 1193.268, 651.752 1196.652, 651.913 1200.005, 652.396 1203.297, 653.196 1206.498, 654.305 1209.579, 655.714 1209.611, 655.729 1212.544, 657.425 1215.302, 659.392 1217.861, 661.613 1220.197, 664.068 1222.288, 666.733 1224.117, 669.586 1225.305, 671.352 1226.728, 672.935 1228.357, 674.305 1230.151, 675.428 1230.162, 675.435 1232.106, 676.301 1234.152, 676.889 1236.260, 677.185 1238.389, 677.185 1240.497, 676.889 1242.543, 676.301 1244.487, 675.435 1246.292, 674.305 1247.922, 672.935 1249.344, 671.352 1250.533, 669.586 1252.361, 666.733 1254.452, 664.068 1256.788, 661.613 1259.347, 659.392 1262.105, 657.425 1265.038, 655.729 1268.119, 654.320 1271.321, 653.210 1274.613, 652.410 1277.967, 651.928 1281.351, 651.766 1291.351, 651.766 1298.284, 651.766 1302.334, 651.918 1306.361, 652.371 1310.342, 653.125 1314.256, 654.174 " />
            <path fill="none" stroke-width="3.0" stroke-linecap="butt" stroke-opacity="1.0" stroke="rgb(0, 0, 0)" stroke-linejoin="round" d=" M 1127.702, 783.309 1126.056, 780.881 1124.682, 778.289 1123.596, 775.564 1122.811, 772.737 1122.337, 769.842 1122.178, 766.913 1122.178, 756.913 1122.178, 746.913 1122.178, 736.913 1122.178, 726.913 1122.178, 716.913 1122.178, 706.913 1122.178, 705.953 1122.329, 701.903 1122.783, 697.877 1123.536, 693.895 1124.585, 689.981 1125.924, 686.156 1127.544, 682.442 1129.438, 678.859 1131.594, 675.428 1134.000, 672.168 1136.643, 669.097 1139.508, 666.231 1142.580, 663.588 1145.840, 661.182 1149.271, 659.026 1152.854, 657.132 1156.568, 655.512 1160.393, 654.174 1164.307, 653.125 1168.288, 652.371 1172.315, 651.918 1176.365, 651.766 1186.365, 651.766 1193.298, 651.766 1196.682, 651.928 1200.036, 652.410 1203.328, 653.210 1206.530, 654.320 1209.611, 655.729 " />
            <path fill="none" stroke-width="3.0" stroke-linecap="butt" stroke-opacity="1.0" stroke="rgb(0, 0, 0)" stroke-linejoin="round" d=" M 1217.655, 785.545 1215.756, 783.309 1214.109, 780.881 1212.735, 778.289 1211.649, 775.564 1210.865, 772.737 1210.390, 769.842 1210.231, 766.913 1210.231, 756.913 1210.231, 746.913 1210.231, 736.913 1210.231, 726.913 1210.231, 722.886 1210.073, 720.580 1209.603, 718.318 1208.829, 716.140 1207.766, 714.088 1206.433, 712.200 1204.856, 710.511 1203.063, 709.052 " />
            <path fill="none" stroke-width="3.0" stroke-linecap="butt" stroke-opacity="1.0" stroke="rgb(0, 0, 0)" stroke-linejoin="round" d=" M 1378.699, 792.701 1376.176, 790.946 1373.844, 788.944 1371.727, 786.716 1369.846, 784.286 1368.220, 781.678 1366.867, 778.918 1365.799, 776.036 1365.029, 773.061 1364.563, 770.023 1364.408, 766.954 1364.408, 756.954 1364.408, 746.954 1364.408, 736.954 1364.408, 726.954 1364.408, 716.954 1364.408, 706.954 1364.408, 696.954 1364.408, 686.954 1364.408, 678.968 1364.563, 675.898 1365.029, 672.861 1365.799, 669.885 1366.867, 667.003 1368.220, 664.244 1369.846, 661.636 1371.727, 659.205 1373.844, 656.978 1376.176, 654.976 1378.699, 653.220 1381.386, 651.729 1384.210, 650.517 1387.143, 649.597 1390.153, 648.978 1393.211, 648.667 1396.284, 648.667 1399.342, 648.978 1402.352, 649.597 1405.285, 650.517 1408.109, 651.729 1410.796, 653.220 1413.319, 654.976 1415.651, 656.978 1417.768, 659.205 1419.650, 661.636 1421.275, 664.244 1422.629, 667.003 1423.696, 669.885 1424.467, 672.861 1424.932, 675.898 1425.088, 678.968 1425.088, 688.968 1425.088, 698.968 1425.088, 708.968 1425.088, 718.968 1425.088, 728.968 1425.088, 738.968 1425.088, 748.968 1425.088, 758.968 1425.088, 766.954 1424.932, 770.023 1424.467, 773.061 1423.696, 776.036 1422.629, 778.918 1421.275, 781.678 1419.650, 784.286 1417.768, 786.716 1415.651, 788.944 1413.319, 790.946 1410.796, 792.701 1408.109, 794.193 1405.285, 795.405 1402.352, 796.325 1399.342, 796.944 1396.284, 797.254 1393.211, 797.254 1390.153, 796.944 1387.143, 796.325 1384.210, 795.405 1381.386, 794.193 1378.699, 792.701 1378.651, 792.673 1376.129, 790.917 1373.797, 788.915 1371.680, 786.688 1369.799, 784.258 1368.174, 781.650 1366.820, 778.891 1365.753, 776.009 1364.983, 773.034 1364.517, 769.997 1364.362, 766.928 1364.362, 756.928 1364.362, 746.928 1364.362, 736.928 1364.362, 726.928 1364.362, 716.928 1364.362, 706.928 1364.362, 696.928 1364.362, 686.928 1364.362, 678.952 1364.517, 675.883 1364.983, 672.845 1365.753, 669.870 1366.820, 666.989 1368.174, 664.230 1369.799, 661.622 1371.680, 659.192 1373.797, 656.964 1376.129, 654.963 1378.651, 653.207 1381.338, 651.716 1384.162, 650.504 1387.094, 649.584 1390.104, 648.965 1393.162, 648.655 1396.235, 648.655 1399.292, 648.965 1402.302, 649.584 1402.352, 649.597 " />
            <path fill="none" stroke-width="3.0" stroke-linecap="butt" stroke-opacity="1.0" stroke="rgb(0, 0, 0)" stroke-linejoin="round" d=" M 1362.798, 603.468 1362.959, 606.699 1363.442, 609.898 1364.240, 613.033 1365.346, 616.073 1366.750, 618.988 1368.437, 621.748 1370.390, 624.327 1372.591, 626.699 1375.016, 628.839 1377.643, 630.728 1380.445, 632.345 1383.394, 633.676 1386.460, 634.706 1389.614, 635.426 1389.667, 635.438 1392.877, 635.840 1396.111, 635.921 1399.338, 635.679 1402.524, 635.117 1405.639, 634.241 1408.651, 633.059 1411.530, 631.583 1414.248, 629.827 1416.777, 627.810 1419.094, 625.551 1421.173, 623.072 1422.996, 620.399 1424.543, 617.557 1425.800, 614.576 1426.754, 611.484 1427.395, 608.313 1427.717, 605.093 1427.717, 601.858 1427.395, 598.638 1426.754, 595.467 1425.800, 592.375 1424.543, 589.394 1422.996, 586.552 1421.173, 583.879 1419.094, 581.401 1416.777, 579.141 1414.248, 577.124 1411.530, 575.369 1408.651, 573.893 1405.639, 572.711 1402.524, 571.834 1399.338, 571.272 1396.111, 571.031 1396.058, 571.027 1392.824, 571.108 1389.614, 571.510 1386.460, 572.230 1383.394, 573.260 1380.445, 574.591 1377.643, 576.208 1375.016, 578.097 1372.591, 580.237 1370.390, 582.609 1368.437, 585.188 1366.750, 587.948 1365.346, 590.863 1364.240, 593.903 1363.442, 597.038 1362.959, 600.237 1362.798, 603.468 " />
            <path fill="none" stroke-width="3.0" stroke-linecap="butt" stroke-opacity="1.0" stroke="rgb(0, 0, 0)" stroke-linejoin="round" d=" M 1389.667, 635.438 1386.512, 634.718 1383.445, 633.687 1380.496, 632.357 1377.694, 630.739 1375.067, 628.850 1372.641, 626.709 1370.440, 624.337 1368.487, 621.758 1366.800, 618.997 1365.396, 616.082 1364.289, 613.042 1363.491, 609.907 1363.009, 606.707 1362.847, 603.476 1363.009, 600.244 1363.491, 597.045 1364.289, 593.909 1365.396, 590.869 1366.800, 587.954 1368.487, 585.193 1370.440, 582.614 1372.641, 580.242 1375.067, 578.101 1377.694, 576.213 1380.496, 574.595 1383.445, 573.264 1386.512, 572.234 1389.667, 571.514 1392.877, 571.111 1396.111, 571.031 " />
            <path fill="none" stroke-width="3.0" stroke-linecap="butt" stroke-opacity="1.0" stroke="rgb(0, 0, 0)" stroke-linejoin="round" d=" M 1538.796, 707.996 1538.782, 707.993 1535.743, 707.368 1532.641, 707.053 1529.524, 707.053 1526.423, 707.368 1523.369, 707.996 1520.395, 708.929 1517.530, 710.159 1514.805, 711.671 1512.246, 713.452 1509.881, 715.483 1507.733, 717.742 1505.825, 720.207 1504.176, 722.853 1502.803, 725.652 1501.720, 728.575 1500.939, 731.593 1500.467, 734.674 1500.309, 737.788 1500.309, 747.788 1500.309, 757.788 1500.309, 767.788 1500.309, 768.561 1500.151, 771.675 1499.679, 774.756 1498.898, 777.774 1497.815, 780.697 1496.442, 783.496 1494.793, 786.142 1492.885, 788.607 1490.737, 790.866 1488.372, 792.897 1485.813, 794.677 1483.088, 796.190 1480.223, 797.420 1477.249, 798.353 1474.195, 798.980 1471.094, 799.296 1467.976, 799.296 1464.875, 798.980 1461.822, 798.353 1458.847, 797.420 1455.982, 796.190 1453.257, 794.677 1450.698, 792.897 1448.333, 790.866 1446.185, 788.607 1444.277, 786.142 1442.628, 783.496 1441.255, 780.697 1440.172, 777.774 1439.391, 774.756 1438.919, 771.675 1438.761, 768.561 1438.761, 758.561 1438.761, 748.561 1438.761, 738.561 1438.761, 737.788 1438.923, 732.318 1439.409, 726.868 1440.217, 721.457 1441.344, 716.102 1442.786, 710.824 1444.539, 705.641 1446.595, 700.570 1448.948, 695.631 1451.590, 690.839 1454.511, 686.212 1457.700, 681.767 1461.148, 677.518 1464.841, 673.481 1468.767, 669.669 1472.912, 666.098 1477.261, 662.777 1481.799, 659.721 1486.511, 656.938 1491.378, 654.440 1496.386, 652.234 1501.515, 650.329 1506.748, 648.731 1512.067, 647.446 1517.452, 646.478 1522.885, 645.831 1528.347, 645.506 1533.819, 645.506 1539.281, 645.831 1544.714, 646.478 1550.099, 647.446 1555.418, 648.731 1560.651, 650.329 1565.780, 652.234 1570.787, 654.440 1575.655, 656.938 1580.366, 659.721 1584.905, 662.777 1589.254, 666.098 1593.398, 669.669 1597.324, 673.481 1601.017, 677.518 1604.465, 681.767 1607.655, 686.212 1610.576, 690.839 1613.218, 695.631 1615.571, 700.570 1617.627, 705.641 1619.379, 710.824 1620.822, 716.102 1621.949, 721.457 1622.756, 726.868 1623.242, 732.318 1623.405, 737.788 1623.405, 747.788 1623.405, 757.788 1623.405, 767.788 1623.405, 768.561 1623.247, 771.675 1622.775, 774.756 1621.993, 777.774 1620.911, 780.697 1619.538, 783.496 1617.889, 786.142 1615.981, 788.607 1613.833, 790.866 1611.468, 792.897 1608.909, 794.677 1606.183, 796.190 1603.318, 797.420 1600.344, 798.353 1597.291, 798.980 1594.189, 799.296 1591.072, 799.296 1587.971, 798.980 1584.917, 798.353 1581.943, 797.420 1581.871, 797.390 1579.006, 796.161 1576.281, 794.648 1573.723, 792.867 1571.358, 790.837 1569.210, 788.578 1567.302, 786.113 1565.654, 783.468 1564.281, 780.670 1563.198, 777.747 1562.417, 774.729 1561.945, 771.648 1561.787, 768.535 1561.787, 758.535 1561.787, 748.535 1561.787, 738.535 1561.787, 737.765 1561.629, 734.652 1561.157, 731.571 1560.376, 728.553 1559.294, 725.630 1557.921, 722.832 1556.272, 720.187 1554.364, 717.722 1552.217, 715.463 1549.852, 713.432 1547.293, 711.652 1544.568, 710.139 1541.704, 708.910 1538.782, 707.993 " />
            <path fill="none" stroke-width="3.0" stroke-linecap="butt" stroke-opacity="1.0" stroke="rgb(0, 0, 0)" stroke-linejoin="round" d=" M 1550.099, 647.446 1550.031, 647.433 1544.646, 646.465 1539.214, 645.818 1533.752, 645.494 1528.281, 645.494 1522.820, 645.818 1517.388, 646.465 1512.003, 647.433 1506.685, 648.718 1501.453, 650.316 1496.324, 652.221 1491.317, 654.426 1486.450, 656.925 1481.739, 659.707 1477.202, 662.763 1472.853, 666.083 1468.708, 669.655 1464.783, 673.465 1461.090, 677.502 1457.643, 681.750 1454.454, 686.195 1451.533, 690.822 1448.892, 695.613 1446.539, 700.552 1444.483, 705.622 1442.730, 710.805 1441.288, 716.082 1440.162, 721.436 1439.354, 726.847 1438.868, 732.296 1438.706, 737.765 1438.706, 747.765 1438.706, 757.765 1438.706, 767.765 1438.706, 768.535 1438.864, 771.648 1439.336, 774.729 1440.117, 777.747 1441.200, 780.670 1442.572, 783.468 1444.221, 786.113 1446.129, 788.578 1448.276, 790.837 1450.641, 792.867 1453.200, 794.648 1455.925, 796.161 1455.982, 796.190 " />
            <path fill="none" stroke-width="3.0" stroke-linecap="butt" stroke-opacity="1.0" stroke="rgb(0, 0, 0)" stroke-linejoin="round" d=" M 1581.943, 797.420 1579.078, 796.190 1576.352, 794.677 1573.794, 792.897 1571.428, 790.866 1569.281, 788.607 1567.373, 786.142 1565.724, 783.496 1564.351, 780.697 1563.268, 777.774 1562.487, 774.756 1562.015, 771.675 1561.857, 768.561 1561.857, 758.561 1561.857, 748.561 1561.857, 738.561 1561.857, 737.788 1561.699, 734.674 1561.227, 731.593 1560.445, 728.575 1559.363, 725.652 1557.990, 722.853 1556.341, 720.207 1554.433, 717.742 1552.285, 715.483 1549.920, 713.452 1547.361, 711.671 1544.635, 710.159 1541.771, 708.929 1538.796, 707.996 " />
            <path fill="none" stroke-width="3.0" stroke-linecap="butt" stroke-opacity="1.0" stroke="rgb(0, 0, 0)" stroke-linejoin="round" d=" M 1655.144, 795.405 1652.319, 794.193 1649.632, 792.701 1647.110, 790.946 1644.778, 788.944 1642.660, 786.716 1640.779, 784.286 1639.153, 781.678 1637.800, 778.918 1636.732, 776.036 1635.962, 773.061 1635.497, 770.023 1635.341, 766.954 1635.341, 756.954 1635.341, 746.954 1635.341, 736.954 1635.341, 726.954 1635.341, 716.954 1635.341, 706.954 1635.341, 696.954 1635.341, 686.954 1635.341, 678.968 1635.497, 675.898 1635.962, 672.861 1636.732, 669.885 1637.800, 667.003 1639.153, 664.244 1640.779, 661.636 1642.660, 659.205 1644.778, 656.978 1647.110, 654.976 1649.632, 653.220 1652.319, 651.729 1655.144, 650.517 1658.076, 649.597 1661.087, 648.978 1664.144, 648.667 1667.218, 648.667 1670.275, 648.978 1673.286, 649.597 1676.218, 650.517 1679.042, 651.729 1681.730, 653.220 1684.252, 654.976 1686.584, 656.978 1688.702, 659.205 1690.583, 661.636 1692.208, 664.244 1693.562, 667.003 1694.630, 669.885 1695.400, 672.861 1695.865, 675.898 1696.021, 678.968 1696.021, 688.968 1696.021, 698.968 1696.021, 708.968 1696.021, 718.968 1696.021, 728.968 1696.021, 738.968 1696.021, 748.968 1696.021, 758.968 1696.021, 766.954 1695.865, 770.023 1695.400, 773.061 1694.630, 776.036 1693.562, 778.918 1692.208, 781.678 1690.583, 784.286 1688.702, 786.716 1686.584, 788.944 1684.252, 790.946 1681.730, 792.701 1679.042, 794.193 1676.218, 795.405 1673.286, 796.325 1670.275, 796.944 1667.218, 797.254 1664.144, 797.254 1661.087, 796.944 1658.076, 796.325 1655.144, 795.405 1655.065, 795.376 1652.241, 794.164 1649.554, 792.673 1647.031, 790.917 1644.700, 788.915 1642.583, 786.688 1640.702, 784.258 1639.076, 781.650 1637.723, 778.891 1636.655, 776.009 1635.885, 773.034 1635.420, 769.997 1635.264, 766.928 1635.264, 756.928 1635.264, 746.928 1635.264, 736.928 1635.264, 726.928 1635.264, 716.928 1635.264, 706.928 1635.264, 696.928 1635.264, 686.928 1635.264, 678.952 1635.420, 675.883 1635.885, 672.845 1636.655, 669.870 1637.723, 666.989 1639.076, 664.230 1640.702, 661.622 1642.583, 659.192 1644.700, 656.964 1647.031, 654.963 1649.554, 653.207 1652.241, 651.716 1655.065, 650.504 1657.997, 649.584 1661.007, 648.965 1664.064, 648.655 1667.137, 648.655 1670.194, 648.965 1670.275, 648.978 " />
            <path fill="none" stroke-width="3.0" stroke-linecap="butt" stroke-opacity="1.0" stroke="rgb(0, 0, 0)" stroke-linejoin="round" d=" M 1633.699, 603.468 1633.860, 606.699 1634.342, 609.898 1635.140, 613.033 1636.247, 616.073 1637.650, 618.988 1639.337, 621.748 1641.291, 624.327 1643.491, 626.699 1645.917, 628.839 1648.543, 630.728 1651.345, 632.345 1654.294, 633.676 1657.361, 634.706 1660.515, 635.426 1660.600, 635.438 1663.810, 635.840 1667.045, 635.921 1670.271, 635.679 1673.458, 635.117 1676.572, 634.241 1679.584, 633.059 1682.463, 631.583 1685.181, 629.827 1687.711, 627.810 1690.027, 625.551 1692.107, 623.072 1693.929, 620.399 1695.477, 617.557 1696.733, 614.576 1697.687, 611.484 1698.328, 608.313 1698.650, 605.093 1698.650, 601.858 1698.328, 598.638 1697.687, 595.467 1696.733, 592.375 1695.477, 589.394 1693.929, 586.552 1692.107, 583.879 1690.027, 581.401 1687.711, 579.141 1685.181, 577.124 1682.463, 575.369 1679.584, 573.893 1676.572, 572.711 1673.458, 571.834 1670.271, 571.272 1667.045, 571.031 1666.959, 571.027 1663.725, 571.108 1660.515, 571.510 1657.361, 572.230 1654.294, 573.260 1651.345, 574.591 1648.543, 576.208 1645.917, 578.097 1643.491, 580.237 1641.291, 582.609 1639.337, 585.188 1637.650, 587.948 1636.247, 590.863 1635.140, 593.903 1634.342, 597.038 1633.860, 600.237 1633.699, 603.468 " />
            <path fill="none" stroke-width="3.0" stroke-linecap="butt" stroke-opacity="1.0" stroke="rgb(0, 0, 0)" stroke-linejoin="round" d=" M 1660.600, 635.438 1657.445, 634.718 1654.378, 633.687 1651.429, 632.357 1648.627, 630.739 1646.000, 628.850 1643.574, 626.709 1641.374, 624.337 1639.420, 621.758 1637.733, 618.997 1636.329, 616.082 1635.222, 613.042 1634.424, 609.907 1633.942, 606.707 1633.781, 603.476 1633.942, 600.244 1634.424, 597.045 1635.222, 593.909 1636.329, 590.869 1637.733, 587.954 1639.420, 585.193 1641.374, 582.614 1643.574, 580.242 1646.000, 578.101 1648.627, 576.213 1651.429, 574.595 1654.378, 573.264 1657.445, 572.234 1660.600, 571.514 1663.810, 571.111 1667.045, 571.031 " />
            <path fill="none" stroke-width="3.0" stroke-linecap="butt" stroke-opacity="1.0" stroke="rgb(0, 0, 0)" stroke-linejoin="round" d=" M 270.650, 841.014 270.810, 843.668 271.290, 846.282 272.080, 848.820 273.171, 851.244 274.547, 853.519 276.186, 855.612 278.066, 857.491 280.158, 859.131 282.433, 860.506 284.857, 861.597 287.395, 862.388 290.010, 862.867 292.663, 863.028 295.317, 862.867 297.931, 862.388 300.469, 861.597 302.893, 860.506 302.977, 860.465 305.251, 859.090 307.344, 857.451 309.223, 855.572 310.862, 853.479 312.237, 851.205 313.328, 848.781 314.119, 846.243 314.598, 843.629 314.759, 840.976 314.598, 838.323 314.119, 835.709 313.328, 833.171 312.237, 830.747 310.862, 828.473 309.223, 826.380 307.344, 824.501 305.251, 822.862 302.977, 821.487 300.553, 820.396 298.016, 819.605 295.401, 819.126 292.748, 818.965 290.095, 819.126 287.481, 819.605 284.943, 820.396 284.857, 820.431 282.433, 821.522 280.158, 822.898 278.066, 824.537 276.186, 826.417 274.547, 828.509 273.171, 830.784 272.080, 833.208 271.290, 835.746 270.810, 838.361 270.650, 841.014 " />
            <path fill="none" stroke-width="3.0" stroke-linecap="butt" stroke-opacity="1.0" stroke="rgb(0, 0, 0)" stroke-linejoin="round" d=" M 284.857, 820.431 287.395, 819.641 290.010, 819.161 292.663, 819.001 295.317, 819.161 297.931, 819.641 300.469, 820.431 302.893, 821.522 305.168, 822.898 307.261, 824.537 309.140, 826.417 310.780, 828.509 312.155, 830.784 313.246, 833.208 314.037, 835.746 314.516, 838.361 314.677, 841.014 314.516, 843.668 314.037, 846.282 313.246, 848.820 312.155, 851.244 310.780, 853.519 309.140, 855.612 307.261, 857.491 305.168, 859.131 302.893, 860.506 " />
            <path fill="none" stroke-width="3.0" stroke-linecap="butt" stroke-opacity="1.0" stroke="rgb(0, 0, 0)" stroke-linejoin="round" d=" M 734.134, 246.307 734.295, 249.997 734.777, 253.658 735.576, 257.264 736.687, 260.786 738.100, 264.198 739.806, 267.474 741.790, 270.588 744.038, 273.518 744.066, 273.552 746.560, 276.275 749.283, 278.769 752.212, 281.017 755.327, 283.001 758.602, 284.707 762.014, 286.120 765.535, 287.230 769.141, 288.029 772.802, 288.511 776.491, 288.672 780.180, 288.511 783.841, 288.029 787.446, 287.230 790.968, 286.120 794.379, 284.707 797.655, 283.001 800.769, 281.017 803.699, 278.769 806.421, 276.275 808.916, 273.552 811.164, 270.623 813.148, 267.508 814.853, 264.233 816.266, 260.821 817.376, 257.300 818.176, 253.695 818.658, 250.033 818.819, 246.344 818.658, 242.655 818.176, 238.994 817.376, 235.389 816.266, 231.867 814.853, 228.456 814.834, 228.416 813.129, 225.140 811.145, 222.026 808.897, 219.096 806.402, 216.373 803.679, 213.878 800.749, 211.630 797.634, 209.645 794.358, 207.940 790.946, 206.527 787.424, 205.416 783.818, 204.617 780.157, 204.135 776.467, 203.974 772.778, 204.135 769.116, 204.617 765.511, 205.416 761.989, 206.527 758.577, 207.940 755.301, 209.645 752.186, 211.630 749.256, 213.878 746.533, 216.373 744.038, 219.096 741.790, 222.026 739.806, 225.140 738.100, 228.416 736.687, 231.828 735.576, 235.350 734.777, 238.956 734.295, 242.617 734.134, 246.307 " />
            <path fill="none" stroke-width="3.0" stroke-linecap="butt" stroke-opacity="1.0" stroke="rgb(0, 0, 0)" stroke-linejoin="round" d=" M 814.834, 228.416 816.248, 231.828 817.358, 235.350 818.158, 238.956 818.640, 242.617 818.801, 246.307 818.640, 249.997 818.158, 253.658 817.358, 257.264 816.248, 260.786 814.834, 264.198 813.129, 267.474 811.145, 270.588 808.897, 273.518 806.402, 276.241 803.679, 278.736 800.749, 280.984 797.634, 282.969 794.358, 284.674 790.946, 286.087 787.424, 287.198 783.818, 287.997 780.157, 288.479 776.467, 288.640 772.778, 288.479 769.116, 287.997 765.511, 287.198 761.989, 286.087 758.577, 284.674 755.301, 282.969 752.186, 280.984 749.256, 278.736 746.533, 276.241 744.038, 273.518 " />
            <path fill="none" stroke-width="3.0" stroke-linecap="butt" stroke-opacity="1.0" stroke="rgb(0, 0, 0)" stroke-linejoin="round" d=" M 258.052, 215.881 258.210, 218.186 258.680, 220.449 259.454, 222.627 260.518, 224.679 261.850, 226.567 263.428, 228.256 265.221, 229.715 267.195, 230.916 267.283, 230.955 269.403, 231.875 271.628, 232.499 273.917, 232.814 276.228, 232.814 278.517, 232.499 280.743, 231.875 282.862, 230.955 284.837, 229.754 286.629, 228.296 288.206, 226.607 289.539, 224.719 290.602, 222.667 291.376, 220.490 291.846, 218.227 292.004, 215.922 291.846, 213.616 291.376, 211.354 290.602, 209.176 289.539, 207.125 288.206, 205.237 286.629, 203.548 284.837, 202.090 282.862, 200.889 282.776, 200.846 280.656, 199.925 278.431, 199.302 276.141, 198.987 273.830, 198.987 271.541, 199.302 269.315, 199.925 267.195, 200.846 265.221, 202.047 263.428, 203.505 261.850, 205.194 260.518, 207.082 259.454, 209.134 258.680, 211.312 258.210, 213.575 258.052, 215.881 " />
            <path fill="none" stroke-width="3.0" stroke-linecap="butt" stroke-opacity="1.0" stroke="rgb(0, 0, 0)" stroke-linejoin="round" d=" M 282.776, 200.846 284.751, 202.047 286.544, 203.505 288.121, 205.194 289.454, 207.082 290.517, 209.134 291.291, 211.312 291.761, 213.575 291.919, 215.881 291.761, 218.186 291.291, 220.449 290.517, 222.627 289.454, 224.679 288.121, 226.567 286.544, 228.256 284.751, 229.715 282.776, 230.916 280.656, 231.836 278.431, 232.460 276.141, 232.775 273.830, 232.775 271.541, 232.460 269.315, 231.836 267.195, 230.916 " />
            <path fill="none" stroke-width="3.0" stroke-linecap="butt" stroke-opacity="1.0" stroke="rgb(0, 0, 0)" stroke-linejoin="round" d=" M 645.038, 135.251 645.198, 139.287 645.679, 143.297 646.477, 147.257 647.587, 151.141 649.002, 154.924 650.713, 158.583 652.709, 162.095 654.978, 165.436 657.506, 168.587 657.544, 168.634 660.313, 171.574 663.308, 174.284 666.508, 176.748 669.893, 178.950 673.443, 180.876 677.135, 182.514 680.945, 183.853 684.850, 184.886 688.824, 185.605 692.843, 186.005 696.881, 186.086 700.913, 185.845 704.912, 185.285 708.855, 184.408 712.715, 183.222 716.469, 181.732 720.093, 179.949 723.563, 177.883 726.859, 175.548 729.959, 172.959 732.843, 170.132 735.493, 167.084 737.893, 163.836 740.027, 160.407 741.882, 156.819 743.446, 153.096 744.709, 149.260 745.664, 145.335 746.304, 141.348 746.624, 137.322 746.624, 133.283 746.304, 129.257 745.664, 125.269 744.709, 121.345 743.446, 117.509 741.882, 113.785 741.854, 113.731 739.999, 110.143 737.865, 106.714 735.464, 103.465 732.814, 100.417 729.929, 97.589 726.829, 95.000 723.533, 92.665 720.062, 90.599 716.438, 88.815 712.684, 87.325 708.823, 86.138 704.880, 85.262 700.880, 84.702 696.848, 84.461 692.809, 84.541 688.790, 84.942 684.815, 85.661 680.910, 86.694 677.099, 88.033 673.407, 89.671 669.857, 91.597 666.470, 93.799 663.270, 96.264 660.275, 98.974 657.506, 101.915 654.978, 105.065 652.709, 108.407 650.713, 111.919 649.002, 115.578 647.587, 119.361 646.477, 123.245 645.679, 127.204 645.198, 131.215 645.038, 135.251 " />
            <path fill="none" stroke-width="3.0" stroke-linecap="butt" stroke-opacity="1.0" stroke="rgb(0, 0, 0)" stroke-linejoin="round" d=" M 741.854, 113.731 743.419, 117.455 744.682, 121.292 745.637, 125.216 746.276, 129.205 746.597, 133.231 746.597, 137.271 746.276, 141.297 745.637, 145.285 744.682, 149.210 743.419, 153.047 741.854, 156.771 739.999, 160.359 737.865, 163.788 735.464, 167.037 732.814, 170.085 729.929, 172.912 726.829, 175.502 723.533, 177.837 720.062, 179.903 716.438, 181.686 712.684, 183.176 708.823, 184.363 704.880, 185.240 700.880, 185.800 696.848, 186.041 692.809, 185.961 688.790, 185.560 684.815, 184.841 680.910, 183.808 677.099, 182.469 673.407, 180.831 669.857, 178.904 666.470, 176.702 663.270, 174.238 660.275, 171.527 657.506, 168.587 " />
            <path fill="none" stroke-width="3.0" stroke-linecap="butt" stroke-opacity="1.0" stroke="rgb(0, 0, 0)" stroke-linejoin="round" d=" M 322.717, 777.247 322.875, 780.516 323.348, 783.754 324.131, 786.931 325.217, 790.018 326.596, 792.986 328.255, 795.806 330.179, 798.454 332.349, 800.903 334.745, 803.132 337.345, 805.119 340.125, 806.845 343.059, 808.296 346.118, 809.456 349.276, 810.316 352.501, 810.867 355.765, 811.104 359.037, 811.025 362.285, 810.630 365.481, 809.924 368.593, 808.913 371.593, 807.606 371.668, 807.572 374.528, 805.982 377.220, 804.123 379.721, 802.013 382.007, 799.672 384.056, 797.121 385.849, 794.384 387.369, 791.486 388.603, 788.456 389.539, 785.321 390.167, 782.110 390.483, 778.853 390.483, 775.581 390.167, 772.324 389.539, 769.113 388.603, 765.978 387.369, 762.947 385.849, 760.050 384.056, 757.313 382.007, 754.762 379.721, 752.420 377.220, 750.311 374.528, 748.452 371.668, 746.862 368.668, 745.555 365.556, 744.544 362.361, 743.838 359.113, 743.443 355.842, 743.364 352.579, 743.601 349.353, 744.152 346.196, 745.012 346.118, 745.038 343.059, 746.198 340.125, 747.649 337.345, 749.375 334.745, 751.362 332.349, 753.591 330.179, 756.040 328.255, 758.688 326.596, 761.508 325.217, 764.476 324.131, 767.563 323.348, 770.740 322.875, 773.978 322.717, 777.247 " />
            <path fill="none" stroke-width="3.0" stroke-linecap="butt" stroke-opacity="1.0" stroke="rgb(0, 0, 0)" stroke-linejoin="round" d=" M 346.118, 745.038 349.276, 744.178 352.501, 743.627 355.765, 743.390 359.037, 743.469 362.285, 743.864 365.481, 744.570 368.593, 745.581 371.593, 746.888 374.453, 748.478 377.146, 750.337 379.647, 752.447 381.933, 754.789 383.982, 757.341 385.776, 760.078 387.296, 762.975 388.531, 766.006 389.466, 769.142 390.095, 772.354 390.411, 775.611 390.411, 778.883 390.095, 782.140 389.466, 785.352 388.531, 788.488 387.296, 791.518 385.776, 794.416 383.982, 797.153 381.933, 799.705 379.647, 802.046 377.146, 804.157 374.453, 806.016 371.593, 807.606 " />
            <path fill="none" stroke-width="3.0" stroke-linecap="butt" stroke-opacity="1.0" stroke="rgb(0, 0, 0)" stroke-linejoin="round" d=" M 680.888, 725.522 681.049, 729.212 681.531, 732.873 682.330, 736.479 683.441, 740.001 684.854, 743.413 686.560, 746.689 688.544, 749.804 690.792, 752.733 693.287, 755.456 696.010, 757.951 698.940, 760.200 702.055, 762.184 705.330, 763.889 708.742, 765.302 712.265, 766.413 715.870, 767.212 719.532, 767.694 723.221, 767.855 726.911, 767.694 730.572, 767.212 734.178, 766.413 737.700, 765.302 741.112, 763.889 744.388, 762.184 747.503, 760.200 750.433, 757.951 753.155, 755.456 753.182, 755.429 755.676, 752.706 757.924, 749.777 759.908, 746.663 761.613, 743.387 763.027, 739.976 764.137, 736.454 764.936, 732.849 765.418, 729.188 765.579, 725.499 765.418, 721.809 764.936, 718.148 764.137, 714.543 763.027, 711.022 761.613, 707.610 759.908, 704.335 757.924, 701.220 755.676, 698.291 753.182, 695.568 750.459, 693.073 747.530, 690.826 744.415, 688.841 741.140, 687.136 737.728, 685.723 734.207, 684.613 730.602, 683.814 726.940, 683.332 723.251, 683.171 719.562, 683.332 715.901, 683.814 712.296, 684.613 708.774, 685.723 705.363, 687.136 702.087, 688.841 702.055, 688.860 698.940, 690.845 696.010, 693.093 693.287, 695.588 690.792, 698.311 688.544, 701.241 686.560, 704.355 684.854, 707.631 683.441, 711.043 682.330, 714.565 681.531, 718.171 681.049, 721.833 680.888, 725.522 " />
            <path fill="none" stroke-width="3.0" stroke-linecap="butt" stroke-opacity="1.0" stroke="rgb(0, 0, 0)" stroke-linejoin="round" d=" M 702.055, 688.860 705.330, 687.155 708.742, 685.742 712.265, 684.631 715.870, 683.832 719.532, 683.350 723.221, 683.189 726.911, 683.350 730.572, 683.832 734.178, 684.631 737.700, 685.742 741.112, 687.155 744.388, 688.860 747.503, 690.845 750.433, 693.093 753.155, 695.588 755.650, 698.311 757.899, 701.241 759.883, 704.355 761.588, 707.631 763.002, 711.043 764.112, 714.565 764.911, 718.171 765.393, 721.833 765.555, 725.522 765.393, 729.212 764.911, 732.873 764.112, 736.479 763.002, 740.001 761.588, 743.413 759.883, 746.689 757.899, 749.804 755.650, 752.733 753.155, 755.456 " />
            <path fill="none" stroke-width="3.0" stroke-linecap="butt" stroke-opacity="1.0" stroke="rgb(0, 0, 0)" stroke-linejoin="round" d=" M 1030.121, 307.189 1030.279, 310.458 1030.752, 313.695 1031.535, 316.872 1032.621, 319.959 1034.000, 322.926 1035.658, 325.746 1037.582, 328.393 1039.751, 330.843 1042.147, 333.071 1044.747, 335.057 1047.527, 336.784 1050.460, 338.234 1053.519, 339.394 1056.676, 340.254 1059.902, 340.805 1063.165, 341.042 1066.436, 340.963 1069.684, 340.568 1072.879, 339.862 1075.991, 338.851 1078.991, 337.544 1081.850, 335.954 1084.543, 334.096 1087.044, 331.986 1089.330, 329.644 1091.378, 327.093 1093.172, 324.356 1093.188, 324.329 1094.709, 321.431 1095.943, 318.400 1096.879, 315.265 1097.508, 312.053 1097.823, 308.796 1097.823, 305.524 1097.508, 302.266 1096.879, 299.055 1095.943, 295.919 1094.709, 292.888 1093.188, 289.991 1091.395, 287.253 1089.346, 284.702 1087.060, 282.360 1084.559, 280.250 1081.866, 278.391 1079.006, 276.801 1076.006, 275.494 1072.893, 274.483 1069.698, 273.776 1066.450, 273.382 1063.178, 273.303 1059.914, 273.540 1056.688, 274.091 1053.531, 274.951 1050.471, 276.111 1047.538, 277.561 1044.758, 279.288 1042.158, 281.275 1039.761, 283.504 1037.591, 285.953 1035.668, 288.600 1034.009, 291.421 1032.630, 294.389 1031.544, 297.476 1031.535, 297.507 1030.752, 300.683 1030.279, 303.921 1030.121, 307.189 " />
            <path fill="none" stroke-width="3.0" stroke-linecap="butt" stroke-opacity="1.0" stroke="rgb(0, 0, 0)" stroke-linejoin="round" d=" M 1093.188, 324.329 1091.395, 327.066 1089.346, 329.617 1087.060, 331.959 1084.559, 334.069 1081.866, 335.928 1079.006, 337.519 1076.006, 338.826 1072.893, 339.837 1069.698, 340.543 1066.450, 340.937 1063.178, 341.017 1059.914, 340.779 1056.688, 340.229 1053.531, 339.369 1050.471, 338.208 1047.538, 336.758 1044.758, 335.031 1042.158, 333.045 1039.761, 330.816 1037.591, 328.367 1035.668, 325.719 1034.009, 322.898 1032.630, 319.931 1031.544, 316.844 1030.761, 313.666 1030.288, 310.428 1030.130, 307.160 1030.288, 303.891 1030.761, 300.653 1031.544, 297.476 " />
            <path fill="none" stroke-width="3.0" stroke-linecap="butt" stroke-opacity="1.0" stroke="rgb(0, 0, 0)" stroke-linejoin="round" d=" M 250.722, 296.160 250.884, 299.850 251.366, 303.511 252.165, 307.117 253.275, 310.639 254.689, 314.051 256.394, 317.327 258.378, 320.441 260.627, 323.371 263.122, 326.094 265.844, 328.589 268.774, 330.837 271.889, 332.822 275.165, 334.527 278.577, 335.940 282.099, 337.051 282.185, 337.077 285.790, 337.876 289.451, 338.358 293.140, 338.519 296.830, 338.358 300.491, 337.876 304.096, 337.077 307.618, 335.966 311.029, 334.553 314.304, 332.848 317.419, 330.864 320.348, 328.616 323.071, 326.121 325.566, 323.399 327.814, 320.469 329.798, 317.355 331.503, 314.080 332.916, 310.668 334.026, 307.146 334.825, 303.541 335.307, 299.880 335.468, 296.191 335.307, 292.502 334.825, 288.841 334.026, 285.236 332.916, 281.714 331.503, 278.302 329.798, 275.027 327.814, 271.913 325.566, 268.983 323.071, 266.261 320.348, 263.766 317.419, 261.518 314.304, 259.534 311.029, 257.829 310.947, 257.793 307.535, 256.380 304.012, 255.269 300.407, 254.470 296.745, 253.988 293.056, 253.827 289.366, 253.988 285.705, 254.470 282.099, 255.269 278.577, 256.380 275.165, 257.793 271.889, 259.498 268.774, 261.483 265.844, 263.731 263.122, 266.226 260.627, 268.949 258.378, 271.879 256.394, 274.993 254.689, 278.269 253.275, 281.681 252.165, 285.203 251.366, 288.809 250.884, 292.470 250.722, 296.160 " />
            <path fill="none" stroke-width="3.0" stroke-linecap="butt" stroke-opacity="1.0" stroke="rgb(0, 0, 0)" stroke-linejoin="round" d=" M 310.947, 257.793 314.222, 259.498 317.337, 261.483 320.267, 263.731 322.990, 266.226 325.485, 268.949 327.733, 271.879 329.718, 274.993 331.423, 278.269 332.836, 281.681 333.947, 285.203 334.746, 288.809 335.228, 292.470 335.389, 296.160 335.228, 299.850 334.746, 303.511 333.947, 307.117 332.836, 310.639 331.423, 314.051 329.718, 317.327 327.733, 320.441 325.485, 323.371 322.990, 326.094 320.267, 328.589 317.337, 330.837 314.222, 332.822 310.947, 334.527 307.535, 335.940 304.012, 337.051 300.407, 337.850 296.745, 338.332 293.056, 338.493 289.366, 338.332 285.705, 337.850 282.099, 337.051 " />
            <path fill="none" stroke-width="3.0" stroke-linecap="butt" stroke-opacity="1.0" stroke="rgb(0, 0, 0)" stroke-linejoin="round" d=" M 335.279, 208.966 335.439, 213.192 335.918, 217.394 336.714, 221.547 337.821, 225.629 339.234, 229.615 340.945, 233.483 342.943, 237.210 345.217, 240.776 347.754, 244.159 350.540, 247.341 353.559, 250.303 356.793, 253.029 360.224, 255.501 363.832, 257.708 367.596, 259.635 367.672, 259.670 371.571, 261.307 375.582, 262.644 379.684, 263.674 383.851, 264.391 388.061, 264.791 392.289, 264.871 396.510, 264.631 400.702, 264.072 404.839, 263.198 408.899, 262.014 412.857, 260.526 416.691, 258.743 420.380, 256.675 423.901, 254.334 427.236, 251.733 430.364, 248.888 433.268, 245.814 435.931, 242.529 438.338, 239.053 440.476, 235.404 442.331, 231.604 443.894, 227.675 445.155, 223.639 446.107, 219.519 446.744, 215.339 447.064, 211.122 447.064, 206.893 446.744, 202.677 446.107, 198.497 445.155, 194.377 443.894, 190.340 442.331, 186.411 440.476, 182.611 438.338, 178.962 435.931, 175.486 433.268, 172.201 430.364, 169.128 427.236, 166.282 423.901, 163.682 423.833, 163.634 420.311, 161.292 416.622, 159.224 412.787, 157.441 408.829, 155.953 404.769, 154.768 400.631, 153.894 396.439, 153.336 392.217, 153.096 387.988, 153.176 383.778, 153.575 379.610, 154.292 375.508, 155.322 371.496, 156.659 367.596, 158.296 363.832, 160.223 360.224, 162.430 356.793, 164.903 353.559, 167.628 350.540, 170.590 347.754, 173.772 345.217, 177.155 342.943, 180.721 340.945, 184.448 339.234, 188.316 337.821, 192.302 336.714, 196.384 335.918, 200.538 335.439, 204.740 335.279, 208.966 " />
            <path fill="none" stroke-width="3.0" stroke-linecap="butt" stroke-opacity="1.0" stroke="rgb(0, 0, 0)" stroke-linejoin="round" d=" M 423.833, 163.634 427.168, 166.235 430.297, 169.080 433.201, 172.154 435.865, 175.440 438.272, 178.917 440.410, 182.566 442.265, 186.366 443.828, 190.296 445.089, 194.333 446.041, 198.453 446.679, 202.634 446.999, 206.851 446.999, 211.080 446.679, 215.297 446.041, 219.478 445.089, 223.599 443.828, 227.635 442.265, 231.565 440.410, 235.366 438.272, 239.015 435.865, 242.492 433.201, 245.777 430.297, 248.851 427.168, 251.697 423.833, 254.297 420.311, 256.639 416.622, 258.707 412.787, 260.490 408.829, 261.978 404.769, 263.163 400.631, 264.037 396.439, 264.596 392.217, 264.836 387.988, 264.756 383.778, 264.356 379.610, 263.639 375.508, 262.609 371.496, 261.272 367.596, 259.635 " />
            <path fill="none" stroke-width="3.0" stroke-linecap="butt" stroke-opacity="1.0" stroke="rgb(0, 0, 0)" stroke-linejoin="round" d=" M 170.188, 746.821 170.349, 751.494 170.832, 756.144 171.635, 760.751 172.754, 765.291 174.184, 769.742 175.917, 774.085 177.946, 778.298 180.261, 782.361 182.850, 786.254 185.702, 789.959 188.802, 793.459 192.137, 796.737 195.690, 799.777 199.444, 802.564 203.381, 805.086 207.484, 807.330 211.731, 809.286 216.103, 810.944 220.579, 812.296 225.137, 813.337 229.757, 814.060 234.415, 814.463 239.090, 814.544 243.760, 814.302 248.401, 813.738 252.993, 812.856 257.513, 811.659 261.939, 810.152 262.028, 810.118 266.340, 808.310 270.516, 806.209 274.538, 803.825 278.386, 801.170 282.041, 798.255 285.486, 795.094 288.705, 791.704 291.683, 788.100 294.405, 784.299 296.858, 780.319 299.031, 776.179 300.912, 771.899 302.495, 767.500 303.769, 763.002 304.731, 758.427 305.374, 753.796 305.697, 749.132 305.697, 744.457 305.374, 739.793 304.731, 735.162 303.769, 730.587 302.495, 726.089 300.912, 721.689 299.031, 717.410 296.858, 713.270 294.405, 709.290 291.683, 705.489 288.705, 701.884 285.486, 698.494 282.041, 695.334 278.386, 692.419 274.538, 689.763 270.516, 687.379 266.340, 685.278 262.028, 683.471 257.602, 681.965 253.083, 680.768 248.492, 679.885 243.851, 679.322 239.182, 679.080 234.507, 679.160 229.849, 679.563 225.230, 680.287 225.137, 680.305 220.579, 681.345 216.103, 682.698 211.731, 684.356 207.484, 686.311 203.381, 688.555 199.444, 691.077 195.690, 693.865 192.137, 696.904 188.802, 700.182 185.702, 703.682 182.850, 707.387 180.261, 711.281 177.946, 715.343 175.917, 719.556 174.184, 723.899 172.754, 728.351 171.635, 732.891 170.832, 737.497 170.349, 742.148 170.188, 746.821 " />
            <path fill="none" stroke-width="3.0" stroke-linecap="butt" stroke-opacity="1.0" stroke="rgb(0, 0, 0)" stroke-linejoin="round" d=" M 225.137, 680.305 229.757, 679.581 234.415, 679.178 239.090, 679.097 243.760, 679.339 248.401, 679.903 252.993, 680.785 257.513, 681.983 261.939, 683.489 266.252, 685.297 270.429, 687.398 274.451, 689.782 278.299, 692.438 281.955, 695.354 285.400, 698.514 288.620, 701.905 291.598, 705.510 294.320, 709.312 296.774, 713.292 298.947, 717.432 300.829, 721.712 302.411, 726.112 303.686, 730.611 304.648, 735.187 305.291, 739.818 305.614, 744.483 305.614, 749.158 305.291, 753.823 304.648, 758.454 303.686, 763.030 302.411, 767.529 300.829, 771.929 298.947, 776.209 296.774, 780.349 294.320, 784.330 291.598, 788.131 288.620, 791.736 285.400, 795.127 281.955, 798.287 278.299, 801.203 274.451, 803.859 270.429, 806.243 266.252, 808.344 261.939, 810.152 " />
            <path fill="none" stroke-width="3.0" stroke-linecap="butt" stroke-opacity="1.0" stroke="rgb(0, 0, 0)" stroke-linejoin="round" d=" M 774.248, 771.454 774.406, 773.759 774.876, 776.022 775.650, 778.200 776.713, 780.252 778.046, 782.140 779.624, 783.829 781.416, 785.288 783.391, 786.488 785.511, 787.409 787.736, 788.033 790.026, 788.347 792.337, 788.347 794.627, 788.033 796.852, 787.409 798.972, 786.488 800.947, 785.288 802.739, 783.829 804.317, 782.140 805.650, 780.252 805.669, 780.221 806.732, 778.170 807.506, 775.992 807.976, 773.730 808.134, 771.424 807.976, 769.119 807.506, 766.856 806.732, 764.679 805.669, 762.627 804.337, 760.739 802.759, 759.050 800.967, 757.592 798.992, 756.391 796.873, 755.471 794.648, 754.847 792.358, 754.532 790.047, 754.532 787.758, 754.847 785.533, 755.471 783.413, 756.391 781.439, 757.592 779.646, 759.050 778.069, 760.739 778.046, 760.767 776.713, 762.655 775.650, 764.707 774.876, 766.885 774.406, 769.148 774.248, 771.454 " />
            <path fill="none" stroke-width="3.0" stroke-linecap="butt" stroke-opacity="1.0" stroke="rgb(0, 0, 0)" stroke-linejoin="round" d=" M 778.046, 760.767 779.624, 759.078 781.416, 757.620 783.391, 756.419 785.511, 755.498 787.736, 754.874 790.026, 754.560 792.337, 754.560 794.627, 754.874 796.852, 755.498 798.972, 756.419 800.947, 757.620 802.739, 759.078 804.317, 760.767 805.650, 762.655 806.713, 764.707 807.487, 766.885 807.957, 769.148 808.115, 771.454 807.957, 773.759 807.487, 776.022 806.713, 778.200 805.650, 780.252 " />
            <path fill="none" stroke-width="3.0" stroke-linecap="butt" stroke-opacity="1.0" stroke="rgb(0, 0, 0)" stroke-linejoin="round" d=" M 1621.685, 847.303 1621.845, 849.956 1622.324, 852.570 1623.115, 855.108 1624.206, 857.531 1625.581, 859.806 1627.220, 861.898 1629.100, 863.778 1631.192, 865.417 1633.467, 866.792 1633.552, 866.833 1635.976, 867.924 1638.514, 868.715 1641.129, 869.194 1643.782, 869.355 1646.436, 869.194 1649.050, 868.715 1651.588, 867.924 1654.012, 866.833 1656.287, 865.458 1658.380, 863.819 1660.260, 861.939 1661.899, 859.847 1663.274, 857.572 1664.365, 855.148 1665.156, 852.610 1665.635, 849.995 1665.796, 847.342 1665.635, 844.688 1665.156, 842.073 1664.365, 839.536 1663.274, 837.112 1661.899, 834.837 1660.260, 832.744 1658.380, 830.864 1656.287, 829.225 1654.012, 827.850 1651.588, 826.759 1651.500, 826.722 1648.963, 825.932 1646.349, 825.452 1643.696, 825.292 1641.042, 825.452 1638.428, 825.932 1635.890, 826.722 1633.467, 827.813 1631.192, 829.188 1629.100, 830.827 1627.220, 832.707 1625.581, 834.799 1624.206, 837.074 1623.115, 839.498 1622.324, 842.035 1621.845, 844.649 1621.685, 847.303 " />
            <path fill="none" stroke-width="3.0" stroke-linecap="butt" stroke-opacity="1.0" stroke="rgb(0, 0, 0)" stroke-linejoin="round" d=" M 1633.552, 866.833 1631.277, 865.458 1629.185, 863.819 1627.305, 861.939 1625.666, 859.847 1624.291, 857.572 1623.199, 855.148 1622.409, 852.610 1621.929, 849.995 1621.769, 847.342 1621.929, 844.688 1622.409, 842.073 1623.199, 839.536 1624.291, 837.112 1625.666, 834.837 1627.305, 832.744 1629.185, 830.864 1631.277, 829.225 1633.552, 827.850 1635.976, 826.759 1638.514, 825.968 1641.129, 825.489 1643.782, 825.328 1646.436, 825.489 1649.050, 825.968 1651.588, 826.759 " />
            <path fill="none" stroke-width="3.0" stroke-linecap="butt" stroke-opacity="1.0" stroke="rgb(0, 0, 0)" stroke-linejoin="round" d=" M 1392.931, 364.043 1393.092, 367.732 1393.574, 371.393 1394.373, 374.998 1395.484, 378.520 1396.897, 381.931 1398.602, 385.207 1400.586, 388.321 1402.834, 391.251 1405.329, 393.973 1408.051, 396.468 1410.981, 398.716 1414.095, 400.700 1417.370, 402.405 1420.782, 403.818 1424.304, 404.929 1427.909, 405.728 1431.570, 406.210 1435.259, 406.371 1438.948, 406.210 1442.609, 405.728 1446.214, 404.929 1446.276, 404.911 1449.798, 403.801 1453.210, 402.388 1456.486, 400.682 1459.601, 398.698 1462.531, 396.450 1465.253, 393.955 1467.749, 391.232 1469.997, 388.302 1471.981, 385.187 1473.686, 381.911 1475.100, 378.499 1476.210, 374.977 1477.010, 371.372 1477.491, 367.710 1477.653, 364.021 1477.491, 360.331 1477.010, 356.669 1476.210, 353.064 1475.100, 349.542 1473.686, 346.130 1471.981, 342.854 1469.997, 339.739 1467.749, 336.809 1465.253, 334.086 1462.531, 331.591 1459.601, 329.343 1456.486, 327.359 1453.210, 325.654 1449.798, 324.240 1446.276, 323.130 1442.670, 322.330 1439.009, 321.848 1435.319, 321.687 1431.630, 321.848 1427.968, 322.330 1424.363, 323.130 1420.840, 324.240 1417.428, 325.654 1417.370, 325.681 1414.095, 327.386 1410.981, 329.370 1408.051, 331.618 1405.329, 334.112 1402.834, 336.835 1400.586, 339.765 1398.602, 342.879 1396.897, 346.154 1395.484, 349.566 1394.373, 353.088 1393.574, 356.693 1393.092, 360.354 1392.931, 364.043 " />
            <path fill="none" stroke-width="3.0" stroke-linecap="butt" stroke-opacity="1.0" stroke="rgb(0, 0, 0)" stroke-linejoin="round" d=" M 1446.276, 404.911 1442.670, 405.711 1439.009, 406.193 1435.319, 406.354 1431.630, 406.193 1427.968, 405.711 1424.363, 404.911 1420.840, 403.801 1417.428, 402.388 1414.153, 400.682 1411.038, 398.698 1408.108, 396.450 1405.385, 393.955 1402.890, 391.232 1400.642, 388.302 1398.657, 385.187 1396.952, 381.911 1395.539, 378.499 1394.428, 374.977 1393.629, 371.372 1393.147, 367.710 1392.986, 364.021 1393.147, 360.331 1393.629, 356.669 1394.428, 353.064 1395.539, 349.542 1396.952, 346.130 1398.657, 342.854 1400.642, 339.739 1402.890, 336.809 1405.385, 334.086 1408.108, 331.591 1411.038, 329.343 1414.153, 327.359 1417.428, 325.654 " />
            <path fill="none" stroke-width="3.0" stroke-linecap="butt" stroke-opacity="1.0" stroke="rgb(0, 0, 0)" stroke-linejoin="round" d=" M 1386.987, 457.706 1387.145, 460.975 1387.618, 464.212 1388.401, 467.389 1389.487, 470.476 1390.865, 473.443 1392.524, 476.263 1394.448, 478.911 1396.617, 481.360 1399.013, 483.588 1401.613, 485.575 1404.393, 487.301 1407.326, 488.751 1410.385, 489.911 1413.542, 490.771 1416.767, 491.322 1420.031, 491.559 1423.302, 491.480 1423.361, 491.474 1426.609, 491.079 1429.805, 490.373 1432.917, 489.362 1435.917, 488.055 1438.777, 486.465 1441.470, 484.606 1443.971, 482.496 1446.257, 480.154 1448.306, 477.602 1450.100, 474.865 1451.620, 471.967 1452.854, 468.937 1453.790, 465.801 1454.419, 462.589 1454.735, 459.332 1454.735, 456.060 1454.419, 452.803 1453.790, 449.591 1452.854, 446.455 1451.620, 443.425 1450.100, 440.527 1448.306, 437.790 1446.257, 435.238 1443.971, 432.897 1441.470, 430.786 1438.777, 428.927 1435.917, 427.337 1432.917, 426.030 1429.805, 425.019 1426.609, 424.313 1423.361, 423.918 1420.089, 423.839 1416.825, 424.076 1413.600, 424.627 1413.542, 424.642 1410.385, 425.501 1407.326, 426.662 1404.393, 428.112 1401.613, 429.838 1399.013, 431.825 1396.617, 434.053 1394.448, 436.502 1392.524, 439.149 1390.865, 441.970 1389.487, 444.937 1388.401, 448.024 1387.618, 451.201 1387.145, 454.438 1386.987, 457.706 " />
            <path fill="none" stroke-width="3.0" stroke-linecap="butt" stroke-opacity="1.0" stroke="rgb(0, 0, 0)" stroke-linejoin="round" d=" M 1423.361, 491.474 1420.089, 491.553 1416.825, 491.316 1413.600, 490.765 1410.442, 489.905 1407.383, 488.745 1404.449, 487.294 1401.669, 485.568 1399.069, 483.581 1396.673, 481.352 1394.503, 478.903 1392.579, 476.255 1390.920, 473.435 1389.541, 470.467 1388.455, 467.380 1387.672, 464.203 1387.199, 460.965 1387.041, 457.696 1387.199, 454.427 1387.672, 451.189 1388.455, 448.012 1389.541, 444.925 1390.920, 441.957 1392.579, 439.137 1394.503, 436.489 1396.673, 434.040 1399.069, 431.811 1401.669, 429.824 1404.449, 428.098 1407.383, 426.647 1410.442, 425.487 1413.600, 424.627 " />
            <path fill="none" stroke-width="3.0" stroke-linecap="butt" stroke-opacity="1.0" stroke="rgb(0, 0, 0)" stroke-linejoin="round" d=" M 1624.472, 923.623 1624.633, 927.164 1625.116, 930.676 1625.916, 934.129 1627.027, 937.495 1628.439, 940.747 1630.141, 943.856 1632.119, 946.798 1634.356, 949.548 1636.834, 952.083 1639.532, 954.382 1642.428, 956.426 1642.515, 956.479 1645.585, 958.252 1648.804, 959.738 1652.145, 960.925 1655.579, 961.804 1659.080, 962.366 1662.617, 962.608 1666.161, 962.527 1669.683, 962.125 1673.155, 961.403 1676.546, 960.369 1679.829, 959.031 1682.976, 957.400 1685.963, 955.490 1688.763, 953.316 1691.354, 950.896 1693.715, 948.250 1695.824, 945.401 1697.667, 942.372 1699.226, 939.188 1700.489, 935.875 1701.445, 932.461 1702.087, 928.975 1702.409, 925.444 1702.409, 921.899 1702.087, 918.368 1701.445, 914.882 1700.489, 911.468 1699.226, 908.155 1697.667, 904.971 1695.824, 901.942 1693.715, 899.093 1691.354, 896.447 1688.763, 894.027 1685.963, 891.853 1682.976, 889.943 1679.829, 888.312 1679.737, 888.267 1676.455, 886.930 1673.064, 885.896 1669.593, 885.175 1666.071, 884.772 1662.527, 884.691 1658.991, 884.933 1655.491, 885.496 1652.057, 886.374 1648.717, 887.561 1645.498, 889.047 1642.428, 890.819 1639.532, 892.864 1636.834, 895.163 1634.356, 897.698 1632.119, 900.448 1630.141, 903.389 1628.439, 906.499 1627.027, 909.750 1625.916, 913.116 1625.116, 916.570 1624.633, 920.082 1624.472, 923.623 " />
            <path fill="none" stroke-width="3.0" stroke-linecap="butt" stroke-opacity="1.0" stroke="rgb(0, 0, 0)" stroke-linejoin="round" d=" M 1642.515, 956.479 1639.619, 954.435 1636.920, 952.135 1634.442, 949.600 1632.204, 946.850 1630.226, 943.908 1628.524, 940.798 1627.112, 937.546 1626.001, 934.179 1625.201, 930.725 1624.718, 927.213 1624.557, 923.672 1624.718, 920.130 1625.201, 916.618 1626.001, 913.164 1627.112, 909.797 1628.524, 906.545 1630.226, 903.435 1632.204, 900.493 1634.442, 897.743 1636.920, 895.208 1639.619, 892.909 1642.515, 890.864 1645.585, 889.091 1648.804, 887.605 1652.145, 886.418 1655.579, 885.540 1659.080, 884.977 1662.617, 884.735 1666.161, 884.816 1669.683, 885.218 1673.155, 885.940 1676.546, 886.974 1679.829, 888.312 " />
            <path fill="none" stroke-width="3.0" stroke-linecap="butt" stroke-opacity="1.0" stroke="rgb(0, 0, 0)" stroke-linejoin="round" d=" M 1556.362, 868.385 1556.521, 871.229 1556.998, 874.037 1557.787, 876.773 1558.877, 879.405 1560.254, 881.897 1561.902, 884.220 1563.800, 886.344 1565.924, 888.241 1568.246, 889.889 1568.324, 889.934 1570.817, 891.312 1573.448, 892.402 1576.185, 893.190 1578.993, 893.667 1581.837, 893.827 1584.681, 893.667 1587.489, 893.190 1590.226, 892.402 1592.858, 891.312 1595.351, 889.934 1597.674, 888.286 1599.798, 886.388 1601.696, 884.264 1603.344, 881.941 1604.722, 879.448 1605.812, 876.816 1606.600, 874.079 1607.078, 871.271 1607.237, 868.427 1607.078, 865.583 1606.600, 862.775 1605.812, 860.038 1604.722, 857.406 1603.344, 854.913 1601.696, 852.590 1599.798, 850.467 1597.674, 848.568 1595.351, 846.920 1592.858, 845.542 1592.778, 845.504 1590.146, 844.414 1587.410, 843.625 1584.602, 843.148 1581.758, 842.989 1578.915, 843.148 1576.107, 843.625 1573.370, 844.414 1570.739, 845.504 1568.246, 846.881 1565.924, 848.529 1563.800, 850.427 1561.902, 852.551 1560.254, 854.873 1558.877, 857.366 1557.787, 859.997 1556.998, 862.734 1556.521, 865.542 1556.362, 868.385 " />
            <path fill="none" stroke-width="3.0" stroke-linecap="butt" stroke-opacity="1.0" stroke="rgb(0, 0, 0)" stroke-linejoin="round" d=" M 1568.324, 889.934 1566.001, 888.286 1563.877, 886.388 1561.979, 884.264 1560.331, 881.941 1558.953, 879.448 1557.863, 876.816 1557.074, 874.079 1556.597, 871.271 1556.437, 868.427 1556.597, 865.583 1557.074, 862.775 1557.863, 860.038 1558.953, 857.406 1560.331, 854.913 1561.979, 852.590 1563.877, 850.467 1566.001, 848.568 1568.324, 846.920 1570.817, 845.542 1573.448, 844.452 1576.185, 843.664 1578.993, 843.187 1581.837, 843.027 1584.681, 843.187 1587.489, 843.664 1590.226, 844.452 1592.858, 845.542 " />
            <path fill="none" stroke-width="3.0" stroke-linecap="butt" stroke-opacity="1.0" stroke="rgb(0, 0, 0)" stroke-linejoin="round" d=" M 1485.214, 421.682 1485.375, 426.354 1485.859, 431.005 1486.662, 435.610 1487.781, 440.150 1489.210, 444.601 1490.943, 448.943 1492.972, 453.155 1495.286, 457.217 1497.875, 461.110 1500.726, 464.815 1503.827, 468.315 1507.161, 471.592 1510.713, 474.631 1514.467, 477.418 1518.404, 479.940 1522.505, 482.184 1526.752, 484.139 1531.123, 485.797 1535.599, 487.149 1540.157, 488.190 1544.776, 488.913 1549.433, 489.316 1554.108, 489.397 1558.777, 489.155 1558.853, 489.148 1563.495, 488.585 1568.086, 487.702 1572.606, 486.505 1577.033, 484.999 1581.345, 483.191 1585.522, 481.090 1589.544, 478.705 1593.392, 476.049 1597.048, 473.134 1600.494, 469.973 1603.713, 466.582 1606.691, 462.978 1609.413, 459.176 1611.867, 455.196 1614.040, 451.055 1615.922, 446.775 1617.504, 442.375 1618.779, 437.877 1619.741, 433.301 1620.385, 428.669 1620.707, 424.005 1620.707, 419.329 1620.385, 414.664 1619.741, 410.033 1618.779, 405.457 1617.504, 400.959 1615.922, 396.559 1614.040, 392.279 1611.867, 388.138 1609.413, 384.158 1606.691, 380.356 1603.713, 376.751 1600.494, 373.361 1597.048, 370.200 1593.392, 367.285 1589.544, 364.629 1585.522, 362.244 1581.345, 360.143 1577.033, 358.335 1572.606, 356.829 1568.086, 355.632 1563.495, 354.749 1558.853, 354.186 1554.183, 353.944 1549.508, 354.024 1544.850, 354.427 1540.230, 355.151 1535.672, 356.191 1531.196, 357.544 1531.123, 357.567 1526.752, 359.225 1522.505, 361.180 1518.404, 363.424 1514.467, 365.946 1510.713, 368.733 1507.161, 371.772 1503.827, 375.049 1500.726, 378.549 1497.875, 382.254 1495.286, 386.147 1492.972, 390.209 1490.943, 394.421 1489.210, 398.763 1487.781, 403.214 1486.662, 407.754 1485.859, 412.359 1485.375, 417.010 1485.214, 421.682 " />
            <path fill="none" stroke-width="3.0" stroke-linecap="butt" stroke-opacity="1.0" stroke="rgb(0, 0, 0)" stroke-linejoin="round" d=" M 1558.853, 489.148 1554.183, 489.390 1549.508, 489.310 1544.850, 488.906 1540.230, 488.183 1535.672, 487.143 1531.196, 485.790 1526.824, 484.132 1522.577, 482.176 1518.475, 479.932 1514.537, 477.410 1510.783, 474.623 1507.230, 471.583 1503.896, 468.306 1500.795, 464.806 1497.943, 461.100 1495.354, 457.207 1493.039, 453.144 1491.010, 448.932 1489.277, 444.589 1487.848, 440.137 1486.729, 435.597 1485.926, 430.991 1485.442, 426.340 1485.281, 421.667 1485.442, 416.994 1485.926, 412.343 1486.729, 407.737 1487.848, 403.197 1489.277, 398.745 1491.010, 394.402 1493.039, 390.190 1495.354, 386.127 1497.943, 382.234 1500.795, 378.528 1503.896, 375.028 1507.230, 371.751 1510.783, 368.711 1514.537, 365.924 1518.475, 363.402 1522.577, 361.158 1526.824, 359.202 1531.196, 357.544 " />
            <path fill="none" stroke-width="3.0" stroke-linecap="butt" stroke-opacity="1.0" stroke="rgb(0, 0, 0)" stroke-linejoin="round" d=" M 1147.965, 508.141 1148.126, 511.830 1148.608, 515.491 1149.407, 519.096 1150.517, 522.618 1151.930, 526.029 1153.635, 529.305 1155.620, 532.419 1157.867, 535.349 1160.362, 538.071 1163.085, 540.566 1166.014, 542.814 1169.129, 544.798 1172.404, 546.503 1175.816, 547.916 1179.337, 549.026 1182.942, 549.826 1186.603, 550.308 1186.632, 550.309 1190.322, 550.470 1194.011, 550.309 1197.673, 549.827 1201.279, 549.028 1204.801, 547.917 1208.213, 546.504 1211.489, 544.798 1214.603, 542.814 1217.533, 540.566 1220.256, 538.071 1222.751, 535.348 1224.999, 532.418 1226.984, 529.303 1228.689, 526.028 1230.102, 522.616 1231.213, 519.093 1232.012, 515.488 1232.494, 511.826 1232.655, 508.137 1232.494, 504.447 1232.012, 500.786 1231.213, 497.180 1230.102, 493.658 1228.689, 490.246 1226.984, 486.970 1224.999, 483.855 1222.751, 480.925 1220.256, 478.203 1217.533, 475.707 1214.603, 473.459 1211.489, 471.475 1208.213, 469.770 1204.801, 468.356 1201.279, 467.246 1197.673, 466.446 1194.011, 465.964 1190.322, 465.803 1186.632, 465.964 1182.971, 466.446 1179.365, 467.246 1175.843, 468.356 1175.816, 468.365 1172.404, 469.779 1169.129, 471.484 1166.014, 473.468 1163.085, 475.716 1160.362, 478.210 1157.867, 480.933 1155.620, 483.862 1153.635, 486.977 1151.930, 490.252 1150.517, 493.664 1149.407, 497.185 1148.608, 500.791 1148.126, 504.452 1147.965, 508.141 " />
            <path fill="none" stroke-width="3.0" stroke-linecap="butt" stroke-opacity="1.0" stroke="rgb(0, 0, 0)" stroke-linejoin="round" d=" M 1186.632, 550.309 1182.971, 549.827 1179.365, 549.028 1175.843, 547.917 1172.431, 546.504 1169.155, 544.798 1166.040, 542.814 1163.110, 540.566 1160.388, 538.071 1157.893, 535.348 1155.644, 532.418 1153.660, 529.303 1151.955, 526.028 1150.542, 522.616 1149.431, 519.093 1148.632, 515.488 1148.150, 511.826 1147.989, 508.137 1148.150, 504.447 1148.632, 500.786 1149.431, 497.180 1150.542, 493.658 1151.955, 490.246 1153.660, 486.970 1155.644, 483.855 1157.893, 480.925 1160.388, 478.203 1163.110, 475.707 1166.040, 473.459 1169.155, 471.475 1172.431, 469.770 1175.843, 468.356 " />
            <path fill="none" stroke-width="3.0" stroke-linecap="butt" stroke-opacity="1.0" stroke="rgb(0, 0, 0)" stroke-linejoin="round" d=" M 1769.081, 594.236 1769.242, 598.183 1769.725, 602.103 1770.525, 605.972 1771.638, 609.762 1773.056, 613.449 1774.770, 617.008 1776.768, 620.415 1779.038, 623.649 1781.563, 626.686 1784.328, 629.508 1787.313, 632.095 1790.500, 634.429 1793.865, 636.497 1797.389, 638.283 1801.046, 639.776 1804.813, 640.966 1808.664, 641.845 1812.574, 642.407 1812.682, 642.420 1816.625, 642.662 1820.575, 642.581 1824.505, 642.179 1828.390, 641.458 1832.203, 640.422 1835.918, 639.079 1839.512, 637.438 1842.960, 635.510 1846.239, 633.306 1849.328, 630.843 1852.206, 628.136 1854.853, 625.204 1857.253, 622.066 1859.389, 618.742 1861.247, 615.255 1862.814, 611.629 1864.081, 607.887 1865.038, 604.054 1865.680, 600.156 1866.002, 596.218 1866.002, 592.267 1865.680, 588.330 1865.038, 584.431 1864.081, 580.599 1862.814, 576.856 1861.247, 573.230 1859.389, 569.743 1857.253, 566.420 1854.853, 563.281 1852.206, 560.349 1849.328, 557.642 1846.239, 555.179 1842.960, 552.976 1839.512, 551.047 1835.918, 549.406 1832.203, 548.063 1828.390, 547.028 1824.505, 546.306 1820.575, 545.904 1816.625, 545.823 1816.517, 545.823 1812.574, 546.064 1808.664, 546.626 1804.813, 547.505 1801.046, 548.695 1797.389, 550.188 1793.865, 551.975 1790.500, 554.042 1787.313, 556.377 1784.328, 558.964 1781.563, 561.785 1779.038, 564.823 1776.768, 568.056 1774.770, 571.464 1773.056, 575.023 1771.638, 578.710 1770.525, 582.500 1769.725, 586.368 1769.242, 590.289 1769.081, 594.236 " />
            <path fill="none" stroke-width="3.0" stroke-linecap="butt" stroke-opacity="1.0" stroke="rgb(0, 0, 0)" stroke-linejoin="round" d=" M 1812.682, 642.420 1808.772, 641.858 1804.920, 640.979 1801.153, 639.789 1797.495, 638.296 1793.971, 636.509 1790.605, 634.441 1787.418, 632.106 1784.432, 629.519 1781.667, 626.697 1779.142, 623.659 1776.872, 620.426 1774.874, 617.018 1773.159, 613.458 1771.741, 609.771 1770.628, 605.980 1769.828, 602.111 1769.345, 598.190 1769.184, 594.243 1769.345, 590.295 1769.828, 586.374 1770.628, 582.505 1771.741, 578.715 1773.159, 575.027 1774.874, 571.468 1776.872, 568.060 1779.142, 564.826 1781.667, 561.788 1784.432, 558.966 1787.418, 556.379 1790.605, 554.044 1793.971, 551.976 1797.495, 550.190 1801.153, 548.697 1804.920, 547.506 1808.772, 546.627 1812.682, 546.065 1816.625, 545.823 " />
            <path fill="none" stroke-width="3.0" stroke-linecap="butt" stroke-opacity="1.0" stroke="rgb(0, 0, 0)" stroke-linejoin="round" d=" M 1121.114, 892.402 1121.275, 895.781 1121.757, 899.131 1122.554, 902.419 1123.661, 905.616 1123.682, 905.663 1125.088, 908.741 1126.780, 911.672 1128.743, 914.428 1130.959, 916.986 1133.408, 919.321 1136.068, 921.413 1138.915, 923.242 1141.923, 924.793 1145.064, 926.051 1148.311, 927.004 1151.634, 927.644 1155.003, 927.966 1158.387, 927.966 1161.755, 927.644 1165.078, 927.004 1168.325, 926.051 1171.467, 924.793 1174.475, 923.242 1177.322, 921.413 1179.982, 919.321 1182.431, 916.986 1184.647, 914.428 1186.610, 911.672 1188.302, 908.741 1189.708, 905.663 1190.814, 902.465 1191.612, 899.176 1192.094, 895.827 1192.255, 892.446 1192.094, 889.066 1191.612, 885.717 1190.814, 882.428 1189.708, 879.230 1188.302, 876.152 1186.610, 873.221 1186.581, 873.179 1184.618, 870.423 1182.402, 867.866 1179.954, 865.531 1177.294, 863.439 1174.448, 861.610 1171.440, 860.059 1168.299, 858.802 1165.052, 857.848 1161.730, 857.208 1158.362, 856.886 1154.978, 856.886 1151.610, 857.208 1148.287, 857.848 1145.041, 858.802 1141.900, 860.059 1138.892, 861.610 1136.046, 863.439 1133.386, 865.531 1130.937, 867.866 1128.721, 870.423 1126.759, 873.179 1125.067, 876.109 1123.661, 879.187 1122.554, 882.384 1121.757, 885.673 1121.275, 889.022 1121.114, 892.402 " />
            <path fill="none" stroke-width="3.0" stroke-linecap="butt" stroke-opacity="1.0" stroke="rgb(0, 0, 0)" stroke-linejoin="round" d=" M 1123.682, 905.663 1122.575, 902.465 1121.777, 899.176 1121.296, 895.827 1121.135, 892.446 1121.296, 889.066 1121.777, 885.717 1122.575, 882.428 1123.682, 879.230 1125.088, 876.152 1126.780, 873.221 1128.743, 870.465 1130.959, 867.907 1133.408, 865.572 1136.068, 863.480 1138.915, 861.651 1141.923, 860.100 1145.064, 858.842 1148.311, 857.889 1151.634, 857.248 1155.003, 856.927 1158.387, 856.927 1161.755, 857.248 1165.078, 857.889 1168.325, 858.842 1171.467, 860.100 1174.475, 861.651 1177.322, 863.480 1179.982, 865.572 1182.431, 867.907 1184.647, 870.465 1186.610, 873.221 " />
        </g>
    </g>
</svg>
